<svg width="1223" height="1514" viewBox="0 0 1223 1514" fill="none" xmlns="http://www.w3.org/2000/svg">
<path d="M326.204 270.515C505.829 321.532 659.83 397.98 763.609 480.32C815.5 521.49 854.815 564.118 878.506 605.756C902.197 647.391 910.248 688.001 899.689 725.179C889.129 762.357 860.935 792.672 818.896 815.639C776.855 838.608 721.003 854.206 655.218 861.955C523.651 877.452 352.457 861.54 172.832 810.523C-6.79256 759.507 -160.793 683.058 -264.573 600.719C-316.463 559.548 -355.778 516.921 -379.47 475.283C-403.161 433.647 -411.212 393.038 -400.652 355.86C-390.093 318.681 -361.898 288.366 -319.859 265.399C-277.818 242.431 -221.966 226.832 -156.182 219.083C-24.6149 203.586 146.579 219.499 326.204 270.515Z" stroke="url(#paint0_linear_202_4)" stroke-opacity="0.3"/>
<path d="M330.905 271.895C509.612 326.038 662.255 405.163 764.582 489.301C815.746 531.371 854.311 574.678 877.272 616.723C900.233 658.766 907.573 699.509 896.367 736.498C885.16 773.486 856.441 803.304 814.008 825.535C771.572 847.766 715.456 862.387 649.547 868.987C517.729 882.185 346.839 863.288 168.132 809.144C-10.5752 755 -163.218 675.876 -265.545 591.738C-316.709 549.668 -355.274 506.361 -378.236 464.316C-401.196 422.273 -408.537 381.529 -397.33 344.541C-386.124 307.553 -357.404 277.734 -314.971 255.504C-272.535 233.273 -216.42 218.651 -150.51 212.052C-18.6927 198.853 152.197 217.751 330.905 271.895Z" stroke="url(#paint1_linear_202_4)" stroke-opacity="0.3"/>
<path d="M335.58 273.356C513.316 330.61 664.554 412.386 765.397 498.298C815.819 541.254 853.622 585.228 875.847 627.667C898.07 670.104 904.699 710.97 892.848 747.757C880.998 784.544 851.762 813.856 808.947 835.343C766.13 856.83 709.768 870.47 643.753 875.918C511.726 886.814 341.191 864.937 163.456 807.682C-14.2788 750.428 -165.518 668.652 -266.36 582.74C-316.783 539.784 -354.586 495.81 -376.81 453.371C-399.033 410.934 -405.662 370.068 -393.811 333.281C-381.961 296.494 -352.726 267.182 -309.911 245.695C-267.094 224.208 -210.731 210.568 -144.716 205.12C-12.6889 194.224 157.845 216.101 335.58 273.356Z" stroke="url(#paint2_linear_202_4)" stroke-opacity="0.3"/>
<path d="M340.23 274.898C516.939 335.246 666.728 419.649 766.056 507.308C815.721 551.138 852.751 595.764 874.231 638.585C895.71 681.403 901.624 722.378 889.134 758.953C876.643 795.528 846.901 824.326 803.717 845.061C760.532 865.798 703.94 878.452 637.84 882.747C505.642 891.338 335.516 866.487 158.807 806.14C-17.9018 745.792 -167.69 661.389 -267.018 573.731C-316.683 529.901 -353.713 485.274 -375.193 442.454C-396.673 399.635 -402.587 358.66 -390.097 322.085C-377.606 285.511 -347.863 256.713 -304.68 235.977C-261.494 215.24 -204.903 202.586 -138.803 198.291C-6.60503 189.701 163.522 214.551 340.23 274.898Z" stroke="url(#paint3_linear_202_4)" stroke-opacity="0.3"/>
<path d="M344.852 276.522C520.48 339.945 668.773 426.949 766.556 516.328C815.449 561.018 851.694 606.284 872.424 649.473C893.152 692.66 898.351 733.732 885.224 770.083C872.097 806.434 841.856 834.708 798.317 854.687C754.776 874.667 697.972 886.331 631.808 889.472C499.48 895.754 329.813 867.939 154.185 804.516C-21.444 741.094 -169.737 654.089 -267.52 564.711C-316.412 520.021 -352.657 474.755 -373.387 431.566C-394.116 388.379 -399.314 347.307 -386.187 310.956C-373.06 274.605 -342.82 246.33 -299.281 226.352C-255.74 206.372 -198.936 194.707 -132.771 191.566C-0.443766 185.284 169.223 213.1 344.852 276.522Z" stroke="url(#paint4_linear_202_4)" stroke-opacity="0.3"/>
<path d="M349.445 278.226C523.94 344.704 670.692 434.283 766.9 525.355C815.005 570.891 850.455 616.783 870.428 660.327C890.399 703.869 894.88 745.026 881.121 781.142C867.361 817.259 836.632 845.001 792.751 864.217C748.868 883.434 691.869 894.105 625.66 896.091C493.243 900.063 324.087 869.29 149.592 802.812C-24.9029 736.335 -171.655 646.755 -267.863 555.684C-315.968 510.147 -351.418 464.255 -371.391 420.711C-391.362 377.169 -395.843 336.013 -382.084 299.896C-368.324 263.78 -337.595 236.037 -293.714 216.821C-249.831 197.604 -192.832 186.933 -126.623 184.947C5.79426 180.976 174.95 211.748 349.445 278.226Z" stroke="url(#paint5_linear_202_4)" stroke-opacity="0.3"/>
<path d="M354.007 280.01C527.316 349.523 672.482 441.65 767.086 534.386C814.389 580.755 849.032 627.259 868.242 671.145C887.451 715.029 891.213 756.257 876.825 792.128C862.437 827.999 831.229 855.201 787.019 873.648C742.807 892.096 685.631 901.771 619.397 902.601C486.931 904.261 318.338 870.541 145.03 801.028C-28.2786 731.515 -173.445 639.388 -268.049 546.651C-315.352 500.282 -349.995 453.779 -369.205 409.893C-388.414 366.009 -392.176 324.78 -377.788 288.909C-363.4 253.039 -332.191 225.837 -287.982 207.389C-243.77 188.941 -186.594 179.266 -120.36 178.436C12.1063 176.777 180.699 210.497 354.007 280.01Z" stroke="url(#paint6_linear_202_4)" stroke-opacity="0.3"/>
<path d="M358.538 281.872C530.607 354.4 674.143 449.046 767.114 543.419C813.6 590.607 847.427 637.708 865.868 681.923C884.308 726.135 887.35 767.423 872.338 803.037C857.327 838.652 825.648 865.305 781.123 882.978C736.596 900.651 679.26 909.327 613.021 909.001C480.546 908.348 312.568 871.691 140.499 799.164C-31.5697 726.637 -175.106 631.991 -268.077 537.617C-314.564 490.43 -348.39 443.329 -366.831 399.114C-385.271 354.902 -388.313 313.614 -373.301 277.999C-358.29 242.385 -326.611 215.732 -282.086 198.059C-237.559 180.385 -180.223 171.71 -113.984 172.036C18.4905 172.688 186.469 209.345 358.538 281.872Z" stroke="url(#paint7_linear_202_4)" stroke-opacity="0.3"/>
<path d="M363.036 283.814C533.812 359.333 675.675 456.471 766.985 552.452C812.641 600.444 845.64 648.128 863.307 692.658C880.972 737.186 883.293 778.52 867.662 813.867C852.031 849.214 819.892 875.31 775.066 892.203C730.237 909.097 672.758 916.771 606.535 915.289C474.092 912.324 306.779 872.741 136.002 797.222C-34.7748 721.703 -176.637 624.566 -267.947 528.584C-313.603 480.593 -346.603 432.909 -364.269 388.379C-381.935 343.851 -384.255 302.516 -368.625 267.17C-352.994 231.823 -320.855 205.727 -276.028 188.833C-231.2 171.94 -173.721 164.266 -107.498 165.748C24.9455 168.712 192.259 208.295 363.036 283.814Z" stroke="url(#paint8_linear_202_4)" stroke-opacity="0.3"/>
<path d="M367.498 285.835C536.931 364.323 677.076 463.921 766.697 561.482C811.509 610.263 843.671 658.516 860.558 703.347C877.443 748.176 879.042 789.545 862.797 824.614C846.552 859.683 813.962 885.214 768.848 901.322C723.731 917.431 666.127 924.1 599.94 921.463C467.569 916.188 300.972 873.69 131.539 795.202C-37.8938 716.714 -178.039 617.116 -267.66 519.556C-312.472 470.774 -344.634 422.522 -361.521 377.69C-378.406 332.861 -380.005 291.492 -363.76 256.424C-347.515 221.355 -314.925 195.824 -269.811 179.715C-224.694 163.606 -167.09 156.937 -100.903 159.575C31.4684 164.85 198.065 207.347 367.498 285.835Z" stroke="url(#paint9_linear_202_4)" stroke-opacity="0.3"/>
<path d="M371.925 287.933C539.962 369.366 678.348 471.395 766.253 570.505C810.206 620.061 841.521 668.868 857.623 713.987C873.724 759.104 874.6 800.494 857.746 835.274C840.891 870.054 807.86 895.012 762.472 910.331C717.081 925.65 659.369 931.313 593.238 927.521C460.979 919.936 295.149 874.538 127.112 793.105C-40.9253 711.672 -179.311 609.643 -267.216 510.533C-311.169 460.977 -342.484 412.17 -358.586 367.051C-374.687 321.934 -375.564 280.544 -358.709 245.764C-341.854 210.984 -308.824 186.025 -263.435 170.707C-218.044 155.388 -160.332 149.725 -94.2013 153.517C38.0578 161.102 203.888 206.5 371.925 287.933Z" stroke="url(#paint10_linear_202_4)" stroke-opacity="0.3"/>
<path d="M376.315 290.107C542.905 374.461 679.489 478.889 765.651 579.518C808.732 629.833 839.191 679.179 854.503 724.573C869.814 769.964 869.968 811.363 852.509 845.844C835.05 880.324 801.589 904.702 755.94 919.226C710.288 933.751 652.486 938.406 586.432 933.46C454.325 923.568 289.313 875.283 122.722 790.929C-43.8678 706.576 -180.452 602.148 -266.614 501.519C-309.695 451.203 -340.154 401.857 -355.466 356.464C-370.777 311.073 -370.931 269.673 -353.472 235.193C-336.013 200.713 -302.552 176.334 -256.902 161.81C-211.251 147.286 -153.449 142.631 -87.3946 147.577C44.712 157.469 209.724 205.754 376.315 290.107Z" stroke="url(#paint11_linear_202_4)" stroke-opacity="0.3"/>
<path d="M380.666 292.358C545.758 379.606 680.499 486.402 764.892 588.52C807.089 639.579 836.681 689.449 851.199 735.103C865.715 780.754 865.147 822.15 847.088 856.321C829.03 890.491 795.149 914.282 749.253 928.007C703.355 941.732 645.481 945.378 579.523 939.28C447.609 927.084 283.464 875.926 118.372 788.678C-46.7211 701.43 -181.462 594.634 -265.854 492.517C-308.051 441.457 -337.644 391.587 -352.161 345.934C-366.678 300.282 -366.109 258.886 -348.051 224.716C-329.993 190.545 -296.111 166.755 -250.216 153.03C-204.318 139.304 -146.444 135.659 -80.4854 141.757C51.4284 153.952 215.573 205.11 380.666 292.358Z" stroke="url(#paint12_linear_202_4)" stroke-opacity="0.3"/>
<path d="M384.977 294.684C548.522 384.8 681.379 493.932 763.976 597.506C805.275 649.295 833.993 699.674 847.711 745.574C861.429 791.471 860.138 832.851 841.486 866.701C822.834 900.551 788.543 923.747 742.415 936.669C696.285 949.591 638.355 952.226 572.514 944.978C440.833 930.482 277.606 876.467 114.061 786.351C-49.484 696.235 -182.341 587.104 -264.938 483.529C-306.237 431.741 -334.955 381.362 -348.673 335.462C-362.391 289.564 -361.1 248.185 -342.448 214.334C-323.796 180.484 -289.505 157.289 -243.377 144.367C-197.246 131.444 -139.317 128.809 -73.4755 136.058C58.2054 150.554 221.432 204.569 384.977 294.684Z" stroke="url(#paint13_linear_202_4)" stroke-opacity="0.3"/>
<path d="M389.246 297.087C551.194 390.043 682.125 501.477 762.902 606.477C803.292 658.978 831.126 709.85 844.041 755.983C856.955 802.113 854.943 843.464 835.703 876.983C816.463 910.503 781.772 933.096 735.426 945.211C689.077 957.327 631.11 958.95 565.405 950.554C433.997 933.762 271.738 876.907 109.791 783.95C-52.1566 690.994 -183.088 579.56 -263.865 474.56C-304.255 422.059 -332.089 371.187 -345.004 325.054C-357.918 278.924 -355.906 237.573 -336.666 204.054C-317.426 170.534 -282.735 147.941 -236.388 135.826C-190.04 123.71 -132.073 122.087 -66.368 130.483C65.0399 147.275 227.299 204.13 389.246 297.087Z" stroke="url(#paint14_linear_202_4)" stroke-opacity="0.3"/>
<path d="M393.474 299.563C553.774 395.331 682.741 509.033 761.673 615.427C801.14 668.625 828.082 719.975 840.19 766.326C852.298 812.675 849.564 853.984 829.742 887.163C809.92 920.341 774.84 942.326 728.289 953.63C681.735 964.935 623.749 965.546 558.201 956.005C427.106 936.922 265.864 877.244 105.564 781.475C-54.7367 685.706 -183.704 572.005 -262.636 465.61C-302.103 412.412 -329.045 361.062 -341.153 314.711C-353.26 268.363 -350.526 227.053 -330.704 193.875C-310.882 160.696 -275.802 138.711 -229.251 127.407C-182.698 116.102 -124.712 115.491 -59.1636 125.033C71.9312 144.115 233.173 203.794 393.474 299.563Z" stroke="url(#paint15_linear_202_4)" stroke-opacity="0.3"/>
<path d="M397.657 302.111C556.261 400.663 683.224 516.598 760.288 624.354C798.82 678.232 824.862 730.045 836.159 776.6C847.456 823.153 844.001 864.408 823.603 897.236C803.206 930.063 767.747 951.433 721.006 961.923C674.263 972.413 616.275 972.013 550.903 961.329C420.161 939.961 259.985 877.477 101.38 778.926C-57.2242 680.374 -184.187 564.439 -261.251 456.683C-299.783 402.805 -325.825 350.992 -337.122 304.437C-348.419 257.884 -344.964 216.628 -324.566 183.801C-304.168 150.973 -268.71 129.604 -221.969 119.114C-175.225 108.624 -117.237 109.024 -51.8654 119.708C78.8764 141.076 239.052 203.56 397.657 302.111Z" stroke="url(#paint16_linear_202_4)" stroke-opacity="0.3"/>
<path d="M401.795 304.733C558.656 406.038 683.576 524.171 758.747 633.255C796.333 687.798 821.467 740.057 831.95 786.803C842.432 833.546 838.258 874.734 817.29 907.201C796.323 939.667 760.497 960.415 713.58 970.087C666.66 979.76 608.688 978.348 543.513 966.524C413.164 942.878 254.102 877.609 97.242 776.304C-59.6183 674.999 -184.539 556.866 -259.71 447.782C-297.296 393.239 -322.43 340.98 -332.913 294.235C-343.395 247.492 -339.221 206.303 -318.253 173.836C-297.285 141.37 -261.46 120.623 -214.542 110.95C-167.623 101.277 -109.651 102.689 -44.4754 114.513C85.8736 138.159 244.935 203.428 401.795 304.733Z" stroke="url(#paint17_linear_202_4)" stroke-opacity="0.3"/>
<path d="M405.887 307.426C560.956 411.453 683.795 531.749 757.051 642.128C793.679 697.319 817.897 750.009 827.563 796.93C837.228 843.848 832.336 884.958 810.805 917.054C789.273 949.149 753.091 969.268 706.012 978.12C658.931 986.973 600.992 984.549 536.033 971.59C406.117 945.672 248.219 877.637 93.1503 773.61C-61.9181 669.583 -184.758 549.288 -258.013 438.909C-294.642 383.718 -318.86 331.028 -328.525 284.107C-338.19 237.188 -333.298 196.078 -311.767 163.983C-290.236 131.887 -254.053 111.768 -206.975 102.916C-159.894 94.0632 -101.955 96.4873 -36.9956 109.446C92.9208 135.364 250.819 203.399 405.887 307.426Z" stroke="url(#paint18_linear_202_4)" stroke-opacity="0.3"/>
<path d="M409.931 310.191C563.161 416.908 683.882 539.329 755.201 650.97C790.86 706.792 814.155 759.896 823 806.979C831.845 854.059 826.236 895.077 804.148 926.792C782.06 958.507 745.532 977.992 698.306 986.021C651.077 994.051 593.19 990.616 528.466 976.525C399.022 948.344 242.336 877.563 89.1062 770.846C-64.1231 664.129 -184.844 541.708 -256.163 430.067C-291.823 374.245 -315.117 321.14 -323.962 274.058C-332.807 226.978 -327.198 185.959 -305.11 154.245C-283.022 122.53 -246.494 103.045 -199.268 95.0159C-152.039 86.986 -94.152 90.421 -29.4287 104.512C100.016 132.693 256.702 203.474 409.931 310.191Z" stroke="url(#paint19_linear_202_4)" stroke-opacity="0.3"/>
<path d="M413.926 313.026C565.27 422.401 683.836 546.911 753.195 659.779C787.875 716.215 810.24 769.718 818.262 816.948C826.284 864.175 819.96 905.089 797.321 936.414C774.683 967.738 737.821 986.582 690.462 993.786C643.1 1000.99 585.282 996.546 520.814 981.327C391.881 950.892 236.454 877.387 85.1104 768.012C-66.2331 658.637 -184.8 534.127 -254.159 421.259C-288.839 364.823 -311.203 311.32 -319.225 264.09C-327.247 216.863 -320.923 175.949 -298.285 144.624C-275.647 113.3 -238.784 94.4559 -191.425 87.2519C-144.063 80.0475 -86.2449 84.4922 -21.7773 99.7104C107.155 130.146 262.583 203.651 413.926 313.026Z" stroke="url(#paint20_linear_202_4)" stroke-opacity="0.3"/>
<path d="M417.872 315.929C567.284 427.929 683.659 554.489 751.038 668.551C784.728 725.583 806.155 779.468 813.351 826.831C820.548 874.191 813.511 914.988 790.329 945.913C767.148 976.838 729.962 995.035 682.484 1001.41C635.004 1007.79 577.272 1002.34 513.08 985.994C384.698 953.313 230.577 877.107 81.1657 765.107C-68.246 653.107 -184.621 526.547 -252 412.486C-285.69 355.454 -307.117 301.568 -314.314 254.206C-321.51 206.845 -314.473 166.048 -291.291 135.123C-268.11 104.199 -230.924 86.0011 -183.447 79.6247C-135.967 73.2479 -78.2344 78.701 -14.0423 95.042C114.34 127.723 268.46 203.929 417.872 315.929Z" stroke="url(#paint21_linear_202_4)" stroke-opacity="0.3"/>
<path d="M421.766 318.902C569.2 433.492 683.349 562.064 748.727 677.284C781.416 734.896 801.9 789.147 808.268 836.628C814.637 884.106 806.889 924.775 783.172 955.29C759.454 985.806 721.956 1003.35 674.374 1008.9C626.79 1014.45 569.162 1007.99 505.265 990.527C377.473 955.61 224.706 876.725 77.2715 762.135C-70.1627 647.545 -184.312 518.973 -249.689 403.753C-282.379 346.141 -302.862 291.89 -309.231 244.409C-315.6 196.931 -307.852 156.263 -284.134 125.747C-260.417 95.2315 -222.919 77.6858 -175.337 72.1389C-127.753 66.5918 -70.1249 73.0516 -6.22772 90.5105C121.564 125.427 274.332 204.312 421.766 318.902Z" stroke="url(#paint22_linear_202_4)" stroke-opacity="0.3"/>
<path d="M425.608 321.942C571.019 439.088 682.907 569.632 746.264 685.976C777.943 744.149 797.477 798.749 803.016 846.334C808.555 893.917 800.098 934.443 775.852 964.54C751.605 994.637 713.807 1011.53 666.136 1016.24C618.462 1020.96 560.955 1013.49 497.373 994.921C370.209 957.779 218.842 876.241 73.4301 759.095C-71.9817 641.949 -183.869 511.405 -247.226 395.061C-278.905 336.888 -298.439 282.288 -303.978 234.703C-309.517 187.12 -301.061 146.594 -276.814 116.497C-252.567 86.3996 -214.769 69.511 -167.098 64.7954C-119.424 60.0796 -61.9176 67.5442 1.66512 86.1155C128.828 123.258 280.196 204.796 425.608 321.942Z" stroke="url(#paint23_linear_202_4)" stroke-opacity="0.3"/>
<path d="M429.395 325.048C572.741 444.714 682.333 577.191 743.65 694.623C774.308 753.34 792.886 808.273 797.594 855.947C802.302 903.619 793.139 943.992 768.371 973.662C743.603 1003.33 705.516 1019.56 657.77 1023.44C610.021 1027.32 552.653 1018.86 489.404 999.178C362.909 959.822 212.987 875.655 69.6422 755.989C-73.703 636.323 -183.295 503.846 -244.612 386.414C-275.271 327.697 -293.849 272.764 -298.557 225.09C-303.264 177.418 -294.102 137.045 -269.334 107.375C-244.566 77.7062 -206.478 61.4798 -158.732 57.5969C-110.983 53.7138 -53.6157 62.1809 9.63322 81.8591C136.129 121.215 286.05 205.382 429.395 325.048Z" stroke="url(#paint24_linear_202_4)" stroke-opacity="0.3"/>
<path d="M433.128 328.221C574.363 450.37 681.627 584.739 740.884 703.223C770.514 762.467 788.13 817.715 792.005 865.465C795.88 913.211 786.015 953.418 760.732 982.651C735.45 1011.88 697.086 1027.44 649.279 1030.49C601.47 1033.54 544.259 1024.07 481.363 1003.29C355.573 961.737 207.144 874.966 65.9089 752.817C-75.3261 630.667 -182.59 496.298 -241.848 377.814C-271.477 318.57 -289.093 263.322 -292.968 215.573C-296.843 167.826 -286.978 127.619 -261.696 98.3862C-236.413 69.1538 -198.049 53.5946 -150.242 50.5456C-102.433 47.4965 -45.2216 56.9635 17.6742 77.7425C143.464 119.3 291.893 206.071 433.128 328.221Z" stroke="url(#paint25_linear_202_4)" stroke-opacity="0.3"/>
<path d="M436.805 331.458C575.887 456.053 680.789 592.274 737.97 711.774C766.561 771.526 783.21 827.073 786.252 874.883C789.293 922.69 778.727 962.719 752.938 991.506C727.15 1020.29 688.519 1035.18 640.667 1037.39C592.812 1039.61 535.774 1029.14 473.251 1007.27C348.206 963.524 201.313 874.176 62.2316 749.58C-76.85 624.984 -181.752 488.763 -238.933 369.263C-267.524 309.512 -284.173 253.964 -287.215 206.155C-290.256 158.347 -279.69 118.319 -253.902 89.5319C-228.113 60.7452 -189.483 45.8579 -141.63 43.6437C-93.7749 41.4294 -36.7377 51.8934 25.786 73.767C150.831 117.513 297.724 206.862 436.805 331.458Z" stroke="url(#paint26_linear_202_4)" stroke-opacity="0.3"/>
<path d="M440.426 334.757C577.312 461.761 679.82 599.792 734.907 720.272C762.451 780.513 778.128 836.343 780.335 884.199C782.541 932.052 771.278 971.89 744.991 1000.22C718.704 1028.55 679.82 1042.77 631.936 1044.14C584.05 1045.52 527.204 1034.06 465.071 1011.1C340.809 965.182 195.498 873.283 58.6119 746.279C-78.2741 619.275 -180.783 481.244 -235.87 360.764C-263.414 300.523 -279.091 244.693 -281.297 196.838C-283.504 148.985 -272.241 109.146 -245.954 80.814C-219.667 52.4817 -180.782 38.2709 -132.898 36.8922C-85.012 35.5134 -28.166 46.9713 33.9664 69.9327C158.229 115.855 303.54 207.753 440.426 334.757Z" stroke="url(#paint27_linear_202_4)" stroke-opacity="0.3"/>
<path d="M443.988 338.121C578.636 467.494 678.72 607.293 731.696 728.716C758.184 789.429 772.885 845.524 774.256 893.411C775.627 941.295 763.67 980.93 736.893 1008.8C710.115 1036.67 670.989 1050.2 623.088 1050.74C575.185 1051.28 518.548 1038.84 456.825 1014.79C333.383 966.71 189.699 872.29 55.0499 742.916C-79.5986 613.542 -179.683 473.743 -232.659 352.32C-259.147 291.608 -273.847 235.513 -275.218 187.626C-276.589 139.742 -264.633 100.106 -237.855 72.2371C-211.078 44.3679 -171.951 30.8379 -124.051 30.295C-76.1475 29.7522 -19.5101 42.2004 42.212 66.2427C165.654 114.326 309.339 208.747 443.988 338.121Z" stroke="url(#paint28_linear_202_4)" stroke-opacity="0.3"/>
<path d="M447.49 341.546C579.86 473.25 677.489 614.774 728.338 737.103C753.762 798.269 767.482 854.612 768.017 902.515C768.552 950.416 755.905 989.837 728.646 1017.23C701.386 1044.63 662.029 1057.48 614.126 1057.18C566.221 1056.89 509.809 1043.46 448.516 1018.34C325.932 968.11 183.917 871.196 51.5469 739.492C-80.8233 607.788 -178.452 466.264 -229.301 343.934C-254.726 282.769 -268.445 226.426 -268.98 178.522C-269.515 130.622 -256.868 91.2007 -229.609 63.8031C-202.349 36.4055 -162.992 23.5604 -115.09 23.8537C-67.1841 24.1469 -10.7727 37.5817 50.5205 62.6975C173.105 112.928 315.12 209.842 447.49 341.546Z" stroke="url(#paint29_linear_202_4)" stroke-opacity="0.3"/>
<path d="M450.933 345.031C580.984 479.025 676.128 622.232 724.834 745.43C749.187 807.03 761.921 863.604 761.62 911.509C761.319 959.412 747.987 998.606 720.253 1025.52C692.519 1052.44 652.944 1064.6 605.054 1063.47C557.161 1062.34 500.993 1047.92 440.147 1021.74C318.458 969.378 178.156 870 48.1046 736.006C-81.9468 602.012 -177.091 458.805 -225.797 335.607C-250.15 274.007 -262.884 217.433 -262.583 169.528C-262.282 121.625 -248.949 82.431 -221.216 55.5133C-193.482 28.5956 -153.907 16.4393 -106.017 17.5685C-58.1238 18.6978 -1.95539 33.1151 58.8901 59.2968C180.579 111.659 320.881 211.037 450.933 345.031Z" stroke="url(#paint30_linear_202_4)" stroke-opacity="0.3"/>
<path d="M454.314 348.576C582.007 484.819 674.637 629.664 721.186 753.694C744.46 815.709 756.205 872.497 755.068 920.39C753.93 968.28 739.916 1007.24 711.717 1033.67C683.517 1060.09 643.737 1071.56 595.873 1069.59C548.007 1067.63 492.099 1052.23 431.72 1024.99C310.963 970.515 172.417 868.704 44.7236 732.461C-82.9695 596.218 -175.6 451.372 -222.148 327.343C-245.423 265.327 -257.168 208.54 -256.03 160.647C-254.893 112.757 -240.879 73.8012 -212.68 47.3717C-184.48 20.9421 -144.699 9.47836 -96.8358 11.4432C-48.9699 13.4082 6.93836 28.8035 67.3177 56.0431C188.074 110.521 326.62 212.332 454.314 348.576Z" stroke="url(#paint31_linear_202_4)" stroke-opacity="0.3"/>
<path d="M457.632 352.179C582.928 490.631 673.017 637.071 717.393 761.893C739.582 824.306 750.334 881.29 748.361 929.155C746.388 977.018 731.696 1015.72 703.04 1041.66C674.384 1067.59 634.409 1078.36 586.587 1075.56C538.762 1072.76 483.131 1056.39 423.237 1028.1C303.449 971.523 166.701 867.309 41.405 728.858C-83.891 590.407 -173.979 443.967 -218.356 319.144C-240.545 256.732 -251.297 199.748 -249.324 151.882C-247.351 104.019 -232.659 65.314 -204.003 39.3806C-175.346 13.4472 -135.371 2.67947 -87.5494 5.47935C-39.7251 8.27939 15.9059 24.6481 75.8007 52.9373C195.588 109.515 332.336 213.728 457.632 352.179Z" stroke="url(#paint32_linear_202_4)" stroke-opacity="0.3"/>
<path d="M460.888 355.84C583.748 496.457 671.267 644.446 713.459 770.025C734.555 832.815 744.31 889.978 741.502 937.801C738.695 985.623 723.329 1024.07 694.225 1049.49C665.12 1074.92 624.963 1084.99 577.198 1081.36C529.429 1077.72 474.092 1060.39 414.701 1031.06C295.919 972.398 161.01 865.813 38.1497 725.197C-84.7108 584.58 -172.23 436.59 -214.421 311.012C-235.517 248.222 -245.273 191.059 -242.465 143.235C-239.657 95.4135 -224.292 56.9708 -195.187 31.5415C-166.083 6.11216 -125.926 -3.95628 -78.1603 -0.322204C-30.3921 3.31205 24.9447 20.6492 84.3366 49.9794C203.118 108.639 338.027 215.223 460.888 355.84Z" stroke="url(#paint33_linear_202_4)" stroke-opacity="0.3"/>
<path d="M464.079 359.556C584.466 502.296 669.389 651.791 709.383 778.086C729.38 841.235 738.136 898.559 734.494 946.327C730.852 994.092 714.818 1032.26 685.274 1057.18C655.73 1082.1 615.404 1091.46 567.709 1086.99C520.011 1082.53 464.986 1064.23 406.115 1033.86C288.375 973.141 155.347 864.219 34.959 721.479C-85.4287 578.74 -170.352 429.245 -210.345 302.95C-230.342 239.801 -239.098 182.477 -235.456 134.709C-231.814 86.9437 -215.78 48.775 -186.237 23.8575C-156.693 -1.06001 -116.366 -10.4261 -68.6713 -5.95894C-20.9738 -1.49157 34.0521 16.8087 92.923 47.171C210.663 107.894 343.691 216.817 464.079 359.556Z" stroke="url(#paint34_linear_202_4)" stroke-opacity="0.3"/>
<path d="M467.204 363.329C585.082 508.148 667.383 659.102 705.166 786.076C724.058 849.565 731.813 907.033 727.338 954.73C722.863 1002.42 706.165 1040.31 676.191 1064.71C646.216 1089.1 605.733 1097.76 558.123 1092.47C510.511 1087.17 455.812 1067.91 397.48 1036.52C280.818 973.754 149.711 862.527 31.8332 717.708C-86.045 572.889 -168.346 421.935 -206.129 294.961C-225.021 231.472 -232.776 174.004 -228.3 126.307C-223.825 78.613 -207.128 40.7299 -177.154 16.3318C-147.179 -8.06629 -106.696 -16.7272 -59.0858 -11.4283C-11.4735 -6.12916 43.2246 13.1286 101.557 44.5137C218.219 107.283 349.326 218.51 467.204 363.329Z" stroke="url(#paint35_linear_202_4)" stroke-opacity="0.3"/>
<path d="M470.263 367.156C585.596 514.01 665.25 666.377 700.811 793.991C718.592 857.8 725.343 915.395 720.036 963.006C714.729 1010.62 697.373 1048.2 666.977 1072.07C636.582 1095.94 595.953 1103.9 548.443 1097.77C500.93 1091.64 446.577 1071.43 388.801 1039.03C273.252 974.235 144.107 860.736 28.7737 713.882C-86.5591 567.028 -166.213 414.661 -201.774 287.046C-219.555 223.238 -226.306 165.643 -220.999 118.032C-215.692 70.4227 -198.336 32.8368 -167.94 8.96558C-137.545 -14.9057 -96.9163 -22.8587 -49.4062 -16.7297C-1.89368 -10.6005 52.46 9.60901 110.235 42.0074C225.784 106.803 354.93 220.302 470.263 367.156Z" stroke="url(#paint36_linear_202_4)" stroke-opacity="0.3"/>
<path d="M473.255 371.034C586.008 519.879 662.99 673.613 696.319 801.829C712.984 865.937 718.728 923.641 712.591 971.153C706.454 1018.66 688.444 1055.94 657.637 1079.28C626.829 1102.61 586.068 1109.86 538.672 1102.9C491.274 1095.94 437.281 1074.79 380.08 1041.38C265.68 974.582 138.534 858.847 25.7821 710.003C-86.9703 561.158 -163.953 407.424 -197.282 279.208C-213.946 215.099 -219.691 157.395 -213.554 109.884C-207.417 62.3746 -189.407 25.0974 -158.6 1.76026C-127.792 -21.5769 -87.0309 -28.8196 -39.635 -21.8624C7.76332 -14.9049 61.756 6.25013 118.957 39.6519C233.358 106.454 360.503 222.189 473.255 371.034Z" stroke="url(#paint37_linear_202_4)" stroke-opacity="0.3"/>
<path d="M476.179 374.964C586.316 525.754 660.604 680.809 691.69 809.586C707.234 873.976 711.97 931.772 705.005 979.169C698.04 1026.56 679.382 1063.52 648.172 1086.32C616.962 1109.11 576.081 1115.64 528.813 1107.86C481.544 1100.08 427.928 1077.98 371.319 1043.59C258.102 974.798 132.996 856.862 22.8583 706.072C-87.2792 555.282 -161.567 400.228 -192.653 271.45C-208.196 207.06 -212.933 149.265 -205.967 101.868C-199.002 54.4727 -180.345 17.5155 -149.135 -5.28044C-117.925 -28.0764 -77.0434 -34.6066 -29.7761 -26.8233C17.4936 -19.0396 71.1089 3.05446 127.718 37.4494C240.936 106.238 366.042 224.175 476.179 374.964Z" stroke="url(#paint38_linear_202_4)" stroke-opacity="0.3"/>
<path d="M479.034 378.946C586.523 531.635 658.093 687.962 686.927 817.263C701.344 881.914 705.071 939.783 697.28 987.052C689.489 1034.32 670.189 1070.94 638.586 1093.19C606.983 1115.44 565.994 1121.26 518.869 1112.65C471.743 1104.04 418.521 1081.01 362.52 1045.64C250.521 974.882 127.492 854.78 20.0034 702.091C-87.4856 549.402 -159.056 393.075 -187.89 263.775C-202.307 199.123 -206.034 141.254 -198.243 93.9854C-190.451 46.7194 -171.152 10.0934 -139.549 -12.1543C-107.946 -34.4021 -66.9563 -40.2179 -19.8321 -31.6108C27.2946 -23.0033 80.5161 0.023085 136.517 35.4008C248.516 106.155 371.545 226.257 479.034 378.946Z" stroke="url(#paint39_linear_202_4)" stroke-opacity="0.3"/>
<path d="M481.819 382.976C586.627 537.518 655.458 695.07 682.031 824.854C695.317 889.747 698.034 947.673 689.419 994.798C680.804 1041.92 660.868 1078.2 628.881 1099.9C596.895 1121.59 555.81 1126.69 508.843 1117.26C461.874 1107.83 409.063 1083.88 353.688 1047.53C242.94 974.834 122.027 852.603 17.2187 698.061C-87.5892 543.519 -156.42 385.967 -182.993 256.183C-196.28 191.29 -198.996 133.364 -190.381 86.2389C-181.766 39.1161 -161.83 2.83248 -129.844 -18.8603C-97.8573 -40.5532 -56.7728 -45.6527 -9.80593 -36.2245C37.1633 -26.7959 89.9749 -2.84411 145.35 33.5055C256.097 106.204 377.011 228.434 481.819 382.976Z" stroke="url(#paint40_linear_202_4)" stroke-opacity="0.3"/>
<path d="M484.533 387.054C586.628 543.401 652.699 702.131 677.003 832.359C689.155 897.474 690.86 955.438 681.424 1002.41C671.988 1049.37 651.422 1085.3 619.061 1106.43C586.701 1127.56 545.534 1131.95 498.739 1121.7C451.941 1111.45 399.556 1086.58 344.824 1049.27C235.362 974.652 116.6 850.329 14.5048 693.982C-87.59 537.635 -153.661 378.905 -177.965 248.677C-190.117 183.562 -191.822 125.598 -182.386 78.6301C-172.95 31.6648 -152.384 -4.26537 -120.023 -25.3966C-87.663 -46.5279 -46.4957 -50.9096 0.299425 -40.6632C47.097 -30.4163 99.4824 -5.54647 154.214 31.7641C263.676 106.384 382.438 230.706 484.533 387.054Z" stroke="url(#paint41_linear_202_4)" stroke-opacity="0.3"/>
<path d="M487.175 391.179C586.526 549.284 649.817 709.143 671.844 839.775C682.858 905.093 683.551 963.078 673.297 1009.87C663.042 1056.67 641.852 1092.23 609.128 1112.8C576.404 1133.36 535.167 1137.02 488.557 1125.96C441.946 1114.9 390.002 1089.12 335.93 1050.86C227.787 974.339 111.213 847.963 11.8621 689.858C-87.4885 531.752 -150.779 371.894 -172.807 241.261C-183.82 175.944 -184.514 117.959 -174.259 71.163C-164.005 24.3695 -142.815 -11.1962 -110.091 -31.7595C-77.3665 -52.3228 -36.129 -55.9854 10.4802 -44.9239C57.0918 -33.8618 109.035 -8.08148 163.108 30.1786C271.251 106.697 387.825 233.074 487.175 391.179Z" stroke="url(#paint42_linear_202_4)" stroke-opacity="0.3"/>
<path d="M489.746 395.349C586.322 555.164 646.813 716.103 666.557 847.1C676.429 912.6 676.11 970.588 665.041 1017.2C653.971 1063.81 632.164 1099 599.086 1118.98C566.008 1138.97 524.713 1141.92 478.304 1130.04C431.892 1118.17 380.407 1091.49 327.01 1052.29C220.219 973.894 105.868 845.502 9.29197 685.687C-87.2842 525.872 -147.775 364.933 -167.519 233.936C-177.392 168.436 -177.073 110.448 -166.003 63.8383C-154.934 17.2309 -133.126 -17.9596 -100.048 -37.9487C-66.9701 -57.9377 -25.6751 -60.8801 20.734 -49.0068C67.1454 -37.1328 118.631 -10.45 172.027 28.748C278.818 107.142 393.17 235.534 489.746 395.349Z" stroke="url(#paint43_linear_202_4)" stroke-opacity="0.3"/>
<path d="M492.243 399.564C586.015 561.04 643.688 723.01 661.143 854.332C669.871 919.994 668.54 977.968 656.658 1024.38C644.777 1070.78 622.359 1105.59 588.937 1125C555.515 1144.41 514.175 1146.63 467.98 1133.95C421.783 1121.26 370.771 1093.69 318.067 1053.56C212.66 973.316 100.567 842.948 6.79523 681.472C-86.977 519.996 -144.65 358.026 -162.105 226.704C-170.833 161.042 -169.502 103.068 -157.62 56.6589C-145.739 10.2518 -123.321 -24.5528 -89.8992 -43.9615C-56.4773 -63.3702 -15.1371 -65.5914 31.0576 -52.9099C77.2548 -40.2278 128.267 -12.6505 180.971 27.4734C286.378 107.72 398.471 238.087 492.243 399.564Z" stroke="url(#paint44_linear_202_4)" stroke-opacity="0.3"/>
<path d="M494.665 403.822C585.605 566.91 640.443 729.862 655.603 861.468C663.184 927.272 660.841 985.214 648.151 1031.41C635.462 1077.6 612.44 1112.01 578.684 1130.83C544.929 1149.66 503.556 1151.15 457.59 1137.67C411.621 1124.18 361.098 1095.72 309.102 1054.68C205.112 972.608 95.3116 840.304 4.37177 677.215C-86.5681 514.127 -141.406 351.175 -156.566 219.569C-164.146 153.765 -161.804 95.8229 -149.114 49.6279C-136.425 3.43515 -113.403 -30.9729 -79.6473 -49.7953C-45.8918 -68.6178 -4.51922 -70.1172 41.4472 -56.6314C87.416 -43.145 137.939 -14.6816 189.935 26.356C293.925 108.43 403.726 240.734 494.665 403.822Z" stroke="url(#paint45_linear_202_4)" stroke-opacity="0.3"/>
<path d="M497.014 408.121C585.093 572.772 637.079 736.656 649.94 868.507C656.371 934.433 653.017 992.325 639.523 1038.29C626.03 1084.26 602.411 1118.26 568.332 1136.49C534.253 1154.72 492.86 1155.5 447.136 1141.21C401.41 1126.92 351.391 1097.58 300.12 1055.64C197.578 971.767 90.103 837.567 2.0233 672.916C-86.0564 508.266 -138.042 344.381 -150.903 212.531C-157.334 146.604 -153.98 88.7121 -140.486 42.7455C-126.993 -3.21867 -103.374 -37.2196 -69.2949 -55.4501C-35.216 -73.6806 6.17646 -74.4577 51.9005 -60.1718C97.6269 -45.8852 147.645 -16.5443 198.917 25.3945C301.459 109.27 408.934 243.471 497.014 408.121Z" stroke="url(#paint46_linear_202_4)" stroke-opacity="0.3"/>
<path d="M499.287 412.461C584.479 578.623 633.597 743.39 644.155 875.445C649.434 941.474 645.071 999.299 630.777 1045.02C616.483 1090.74 592.274 1124.33 557.882 1141.96C523.49 1159.59 482.091 1159.65 436.623 1144.57C391.153 1129.48 341.654 1099.27 291.122 1056.45C190.059 970.795 84.9431 834.739 -0.249677 668.577C-85.4424 502.414 -134.56 337.647 -145.118 205.592C-150.397 139.564 -146.034 81.7389 -131.74 36.0149C-117.446 -9.70687 -93.2371 -43.2905 -58.8453 -60.9234C-24.4534 -78.5564 16.9463 -78.6109 62.4141 -63.5292C107.884 -48.4467 157.383 -18.2374 207.915 24.5898C308.978 110.243 414.094 246.298 499.287 412.461Z" stroke="url(#paint47_linear_202_4)" stroke-opacity="0.3"/>
<path d="M501.484 416.839C583.764 584.463 629.998 750.062 638.25 882.281C642.376 948.392 637.004 1006.13 621.914 1051.6C606.825 1097.06 582.034 1130.22 547.339 1147.25C512.645 1164.28 471.25 1163.61 426.053 1147.74C380.853 1131.87 331.889 1100.8 282.112 1057.09C182.56 969.691 79.8338 831.822 -2.44602 664.198C-84.7259 496.574 -130.96 330.975 -139.212 198.756C-143.338 132.645 -137.966 74.9049 -122.876 29.4373C-107.787 -16.028 -82.9955 -49.1839 -48.3012 -66.214C-13.6068 -83.244 27.7875 -82.5761 72.9852 -66.7031C118.185 -50.8294 167.149 -19.7608 216.926 23.9418C316.478 111.345 419.204 249.215 501.484 416.839Z" stroke="url(#paint48_linear_202_4)" stroke-opacity="0.3"/>
<path d="M503.603 421.256C582.945 590.291 626.283 756.671 632.225 889.014C635.197 955.187 628.818 1012.82 612.937 1058.02C597.057 1103.22 571.69 1135.93 536.704 1152.36C501.718 1168.78 460.341 1167.39 415.428 1150.73C370.512 1134.07 322.097 1102.15 273.091 1057.59C175.079 968.458 74.7751 828.817 -4.5668 659.782C-83.9087 490.748 -127.246 324.367 -133.189 192.024C-136.16 125.852 -129.782 68.2144 -113.901 23.0171C-98.0202 -22.1779 -72.6538 -54.8962 -37.6675 -71.3181C-2.68121 -87.7401 38.6952 -86.3498 83.6089 -69.6904C128.525 -53.0303 176.939 -21.1118 225.946 23.4528C323.958 112.58 424.262 252.222 503.603 421.256Z" stroke="url(#paint49_linear_202_4)" stroke-opacity="0.3"/>
<path d="M505.646 425.708C582.026 596.102 622.453 763.213 626.085 895.64C627.901 961.854 620.518 1019.37 603.85 1064.29C587.184 1109.2 561.25 1141.47 525.983 1157.28C490.715 1173.08 449.369 1170.97 404.753 1153.53C360.135 1136.09 312.285 1103.33 264.063 1057.92C167.622 967.094 69.7702 825.723 -6.60946 655.33C-82.9892 484.936 -123.416 317.825 -127.048 185.398C-128.865 119.183 -121.481 61.6662 -104.814 16.753C-88.1469 -28.158 -62.2132 -60.4286 -26.9457 -76.2374C8.32189 -92.0463 49.6677 -89.9341 94.2839 -72.4935C138.902 -55.0519 186.752 -22.2934 234.974 23.1197C331.415 113.944 429.267 255.315 505.646 425.708Z" stroke="url(#paint50_linear_202_4)" stroke-opacity="0.3"/>
<path d="M507.611 430.196C581.005 601.896 618.509 769.688 619.83 902.158C620.49 968.394 612.104 1025.77 594.655 1070.39C577.207 1115 550.715 1146.82 515.176 1162.01C479.638 1177.2 438.336 1174.36 394.031 1156.15C349.724 1137.93 302.452 1104.34 255.031 1058.09C160.19 965.599 64.8202 822.542 -8.57415 650.842C-81.9685 479.141 -119.473 311.35 -120.793 178.88C-121.454 112.644 -113.067 55.2642 -95.6186 10.6486C-78.1706 -33.9646 -51.6777 -65.7777 -16.1396 -80.9686C19.3985 -96.1596 60.7011 -93.3261 105.006 -75.1094C149.313 -56.8919 196.584 -23.3032 244.006 22.9446C338.847 115.438 434.217 258.495 507.611 430.196Z" stroke="url(#paint51_linear_202_4)" stroke-opacity="0.3"/>
<path d="M509.497 434.717C579.884 607.672 614.454 776.093 613.462 908.566C612.966 974.803 603.58 1032.03 585.355 1076.33C567.131 1120.63 540.087 1151.98 504.29 1166.55C468.492 1181.12 427.245 1177.56 383.265 1158.58C339.282 1139.59 292.604 1105.18 245.997 1058.11C152.785 963.975 59.9263 819.276 -10.4603 646.321C-80.8468 473.365 -115.417 304.945 -114.425 172.472C-113.93 106.235 -104.543 49.0102 -86.3185 4.70597C-68.0946 -39.596 -41.0505 -70.9418 -5.25275 -85.5102C30.5451 -100.079 71.792 -96.5248 115.772 -77.5377C159.755 -58.5496 206.432 -24.1411 253.04 22.9273C346.252 117.062 439.111 261.762 509.497 434.717Z" stroke="url(#paint52_linear_202_4)" stroke-opacity="0.3"/>
<path d="M511.304 439.27C578.661 613.428 610.287 782.426 606.984 914.861C605.332 981.08 594.948 1038.13 575.953 1082.11C556.959 1126.09 529.372 1156.96 493.325 1170.9C457.278 1184.84 416.1 1180.57 372.458 1160.82C328.813 1141.06 282.743 1105.84 236.965 1057.97C145.409 962.222 55.0902 815.925 -12.2671 641.767C-79.6245 467.61 -111.25 298.612 -107.947 166.176C-106.295 99.9576 -95.9114 42.9056 -76.9161 -1.07381C-57.9218 -45.051 -30.3348 -75.92 5.71181 -89.8615C41.7584 -103.803 82.937 -99.5297 126.579 -79.7779C170.224 -60.0252 216.294 -24.8073 262.072 23.0674C353.628 118.815 443.947 265.113 511.304 439.27Z" stroke="url(#paint53_linear_202_4)" stroke-opacity="0.3"/>
<path d="M513.031 443.855C577.339 619.161 606.01 788.685 600.396 921.043C597.589 987.223 586.211 1044.08 566.451 1087.73C546.692 1131.36 518.571 1161.75 482.286 1175.06C446.002 1188.37 404.904 1183.38 361.613 1162.87C318.32 1142.36 272.872 1106.34 227.936 1057.67C138.065 960.342 50.3133 812.49 -13.9943 637.183C-78.3019 461.877 -106.973 292.352 -101.359 159.995C-98.552 93.8151 -87.1743 36.953 -67.4144 -6.68816C-47.6554 -50.3271 -19.5339 -80.71 16.7505 -94.0202C53.035 -107.33 94.1327 -102.339 137.424 -81.8288C180.717 -61.3174 226.165 -25.3008 271.101 23.3655C360.972 120.696 448.724 268.548 513.031 443.855Z" stroke="url(#paint54_linear_202_4)" stroke-opacity="0.3"/>
<path d="M514.678 448.468C575.916 624.87 601.625 794.869 593.701 927.108C589.74 993.229 577.371 1049.88 556.853 1093.17C536.335 1136.46 507.688 1166.35 471.177 1179.02C434.665 1191.7 393.661 1185.99 350.735 1164.73C307.806 1143.46 262.993 1106.66 218.913 1057.22C130.755 958.332 45.5971 808.972 -15.6412 632.57C-76.8795 456.168 -102.588 286.169 -94.6646 153.929C-90.703 87.8085 -78.3346 31.1536 -57.816 -12.1361C-37.2985 -55.4236 -8.65099 -85.311 27.8602 -97.986C64.3714 -110.661 105.376 -104.953 148.302 -83.6904C191.231 -62.4265 236.043 -25.6222 280.123 23.8209C368.282 122.705 453.44 272.066 514.678 448.468Z" stroke="url(#paint55_linear_202_4)" stroke-opacity="0.3"/>
<path d="M516.244 453.11C574.395 630.554 597.132 800.976 586.902 933.057C581.787 999.098 568.432 1055.53 547.161 1098.45C525.891 1141.38 496.726 1170.76 460 1182.8C423.273 1194.83 382.374 1188.41 339.825 1166.4C297.275 1144.39 253.111 1106.81 209.901 1056.6C123.482 956.196 40.9432 805.372 -17.2072 627.928C-75.3575 450.484 -98.095 280.062 -87.8651 147.982C-82.7501 81.9399 -69.3949 25.5095 -48.1239 -17.4155C-26.854 -60.3383 2.31076 -89.7212 39.0376 -101.757C75.7644 -113.793 116.663 -107.37 159.212 -85.3616C201.763 -63.3517 245.926 -25.771 289.137 24.4339C375.556 124.842 458.094 275.666 516.244 453.11Z" stroke="url(#paint56_linear_202_4)" stroke-opacity="0.3"/>
<path d="M517.729 457.778C572.774 636.209 592.534 807.002 580 938.884C573.734 1004.83 559.396 1061.02 537.379 1103.56C515.363 1146.11 485.69 1174.98 448.759 1186.37C411.827 1197.76 371.047 1190.63 328.889 1167.88C286.729 1145.13 243.228 1106.78 200.9 1055.83C116.246 953.933 36.3529 801.691 -18.6918 623.259C-73.7364 444.827 -93.4962 274.035 -80.9627 142.152C-74.6959 76.2102 -60.3579 20.0215 -38.341 -22.5257C-16.3252 -65.0708 13.3479 -93.9403 50.2792 -105.333C87.2105 -116.726 127.991 -109.591 170.149 -86.843C212.309 -64.0939 255.81 -25.7481 298.138 25.2033C382.791 127.104 462.685 279.346 517.729 457.778Z" stroke="url(#paint57_linear_202_4)" stroke-opacity="0.3"/>
<path d="M519.132 462.472C571.054 641.837 587.831 812.949 572.997 944.592C565.581 1010.41 550.264 1066.34 527.508 1108.5C504.753 1150.66 474.581 1179 437.456 1189.75C400.332 1200.5 359.682 1192.65 317.927 1169.17C276.171 1145.69 233.345 1106.59 191.914 1054.91C109.051 951.544 31.8269 797.931 -20.0953 618.566C-72.0176 439.201 -88.7936 268.089 -73.9603 136.446C-66.5436 70.6232 -51.2271 14.6933 -28.471 -27.4632C-5.71611 -69.6176 24.4563 -97.9648 61.5808 -108.712C98.7053 -119.458 139.355 -111.612 181.11 -88.1321C222.866 -64.6506 265.692 -25.5514 307.123 26.1309C389.986 129.494 467.21 283.107 519.132 462.472Z" stroke="url(#paint58_linear_202_4)" stroke-opacity="0.3"/>
<path d="M520.453 467.189C569.237 647.433 583.024 818.811 565.896 950.175C557.332 1015.86 541.041 1071.51 517.553 1113.27C494.066 1155.02 463.403 1182.83 426.097 1192.93C388.791 1203.03 348.284 1194.47 306.946 1170.27C265.605 1146.06 223.469 1106.22 182.945 1053.82C101.899 949.03 27.3677 794.092 -21.4163 613.848C-70.2002 433.604 -83.9874 262.226 -66.8589 130.862C-58.2945 65.1782 -42.0043 9.52418 -18.5159 -32.2288C4.97121 -73.9796 35.6338 -101.796 72.9402 -111.893C110.247 -121.99 150.753 -113.436 192.091 -89.2307C233.432 -65.024 275.568 -25.1834 316.092 27.2141C397.138 132.007 471.669 286.945 520.453 467.189Z" stroke="url(#paint59_linear_202_4)" stroke-opacity="0.3"/>
<path d="M521.692 471.929C567.323 652.997 578.117 824.59 558.698 955.635C548.989 1021.16 531.73 1076.52 507.516 1117.86C483.304 1159.19 452.161 1186.47 414.684 1195.91C377.207 1205.36 336.856 1196.1 295.946 1171.17C255.034 1146.25 213.6 1105.68 173.997 1052.58C94.7922 946.392 22.9758 790.177 -22.655 609.109C-68.2858 428.041 -79.0799 256.448 -59.6614 125.403C-49.952 59.8791 -32.693 4.51781 -8.4795 -36.8188C15.7327 -78.1534 46.8761 -105.43 84.353 -114.875C121.83 -124.319 162.181 -115.06 203.091 -90.1365C244.003 -65.212 285.437 -24.6421 325.04 28.4547C404.245 134.646 476.061 290.861 521.692 471.929Z" stroke="url(#paint60_linear_202_4)" stroke-opacity="0.3"/>
<path d="M522.847 476.689C565.311 658.526 573.109 830.281 551.406 960.968C540.555 1026.31 522.332 1081.36 497.401 1122.27C472.471 1163.18 440.856 1189.91 403.22 1198.7C365.584 1207.48 325.401 1197.52 284.933 1171.89C244.462 1146.25 203.742 1104.97 165.071 1051.19C87.7324 943.63 18.6533 786.186 -23.8105 604.349C-66.2743 422.512 -74.0721 250.757 -52.3695 120.07C-41.518 54.7258 -23.2954 -0.325825 1.63578 -41.2336C26.5657 -82.1393 58.1804 -108.869 95.8164 -117.658C133.452 -126.447 173.636 -116.484 214.104 -90.8507C254.575 -65.216 295.295 -23.9292 333.965 29.8507C411.304 137.408 480.384 294.853 522.847 476.689Z" stroke="url(#paint61_linear_202_4)" stroke-opacity="0.3"/>
<path d="M523.92 481.469C563.204 664.019 568.003 835.884 544.023 966.172C532.032 1031.32 512.852 1086.04 487.21 1126.51C461.57 1166.97 429.494 1193.15 391.71 1201.28C353.927 1209.41 313.924 1198.75 273.908 1172.41C233.891 1146.07 193.898 1104.08 156.172 1049.64C80.722 940.745 14.4011 782.119 -24.8827 599.569C-64.1666 417.018 -68.9656 245.154 -44.9855 114.866C-32.9953 49.7204 -13.8147 -5.00477 11.8267 -45.4712C37.4667 -85.9356 69.543 -112.109 107.327 -120.24C145.11 -128.371 185.114 -117.708 225.129 -91.3727C265.146 -65.0356 305.139 -23.0444 342.865 31.4022C418.315 140.293 484.636 298.919 523.92 481.469Z" stroke="url(#paint62_linear_202_4)" stroke-opacity="0.3"/>
<path d="M524.909 486.267C561 669.475 562.799 841.398 536.549 971.247C523.424 1036.17 503.291 1090.56 476.947 1130.57C450.605 1170.58 418.077 1196.19 380.157 1203.66C342.237 1211.13 302.426 1199.77 262.877 1172.74C223.325 1145.71 184.071 1103.03 147.301 1047.93C73.7626 937.738 10.2203 777.979 -25.8716 594.771C-61.9635 411.563 -63.7623 239.64 -37.5121 109.791C-24.3867 44.8648 -4.25394 -9.51735 22.0897 -49.5301C48.4321 -89.5408 80.9603 -115.15 118.88 -122.621C156.8 -130.091 196.611 -118.732 236.16 -91.7019C275.712 -64.6705 314.966 -21.9877 351.736 33.109C425.274 143.3 488.817 303.059 524.909 486.267Z" stroke="url(#paint63_linear_202_4)" stroke-opacity="0.3"/>
<path d="M525.813 491.082C558.702 674.892 557.501 846.819 528.988 976.191C514.732 1040.88 493.653 1094.9 466.615 1134.45C439.578 1173.99 406.608 1199.03 368.564 1205.84C330.519 1212.64 290.912 1200.59 251.841 1172.88C212.767 1145.16 174.264 1101.8 138.461 1046.07C66.857 934.61 6.11256 773.766 -26.7764 589.956C-59.6654 406.146 -58.4635 234.218 -29.9511 104.847C-15.6946 40.1597 5.38421 -13.8627 32.4222 -53.4096C59.4588 -92.9545 92.429 -117.993 130.473 -124.8C168.518 -131.607 208.125 -119.555 247.196 -91.839C286.27 -64.1214 324.773 -20.76 360.576 34.97C432.18 146.428 492.924 307.272 525.813 491.082Z" stroke="url(#paint64_linear_202_4)" stroke-opacity="0.3"/>
<path d="M526.634 495.911C556.31 680.267 552.108 852.148 521.342 981.002C505.959 1045.43 483.94 1099.08 456.216 1138.15C428.494 1177.21 395.092 1201.67 356.934 1207.81C318.777 1213.96 279.386 1201.22 240.804 1172.82C202.22 1144.43 164.479 1100.4 129.655 1044.05C60.007 931.362 2.07887 769.483 -27.5972 585.127C-57.2733 400.771 -53.071 228.89 -22.305 100.036C-6.9218 35.6073 15.0966 -18.0391 42.8207 -57.1081C70.5433 -96.1752 103.946 -120.634 142.103 -126.776C180.26 -132.919 219.651 -120.177 258.233 -91.7833C296.817 -63.388 334.558 -19.3612 369.382 36.9851C439.03 149.676 496.958 311.555 526.634 495.911Z" stroke="url(#paint65_linear_202_4)" stroke-opacity="0.3"/>
<path d="M527.371 500.754C553.825 685.6 546.623 857.381 513.613 985.679C497.108 1049.83 474.157 1103.08 445.755 1141.66C417.355 1180.24 383.531 1204.11 345.272 1209.59C307.013 1215.06 267.851 1201.64 229.77 1172.57C191.688 1143.51 154.721 1098.83 120.885 1041.88C53.2148 927.995 -1.87934 765.129 -28.3334 580.283C-54.7875 395.437 -47.5861 223.656 -14.5761 95.3586C1.92925 31.2085 24.8806 -22.0454 53.2823 -60.6246C81.6825 -99.2019 115.506 -123.074 153.765 -128.549C192.024 -134.025 231.186 -120.598 269.267 -91.5351C307.349 -62.4707 344.316 -17.7919 378.152 39.1536C445.822 153.043 500.917 315.908 527.371 500.754Z" stroke="url(#paint66_linear_202_4)" stroke-opacity="0.3"/>
<path d="M527.73 505.352C550.954 690.631 540.756 862.26 505.511 989.962C487.889 1053.81 464.012 1106.66 434.941 1144.74C405.872 1182.81 371.637 1206.09 333.288 1210.9C294.939 1215.71 256.018 1201.6 218.45 1171.87C180.881 1142.15 144.699 1096.83 111.862 1039.3C46.1898 924.252 -6.05348 760.45 -29.2775 575.17C-52.5016 389.891 -42.3033 218.262 -7.05918 90.5597C10.5632 26.7075 34.4405 -26.1378 63.5111 -64.2155C92.5803 -102.291 126.816 -125.569 165.164 -130.376C203.513 -135.183 242.435 -121.075 280.002 -91.3518C317.571 -61.6272 353.753 -16.3101 386.59 41.2173C452.262 156.27 504.506 320.072 527.73 505.352Z" stroke="url(#paint67_linear_202_4)" stroke-opacity="0.3"/>
<path d="M528.589 510.475C548.576 696.132 535.384 867.557 497.916 994.624C479.182 1058.16 454.386 1110.58 424.656 1148.14C394.926 1185.71 360.29 1208.38 321.863 1212.52C283.437 1216.66 244.767 1201.87 207.724 1171.5C170.679 1141.12 135.294 1095.18 103.466 1037.09C39.8115 920.908 -9.56506 756.219 -29.552 570.562C-49.539 384.906 -36.3469 213.481 1.1206 86.413C19.8547 22.8781 44.6506 -29.5424 74.3813 -67.1069C104.111 -104.67 138.747 -127.347 177.174 -131.484C215.6 -135.62 254.27 -120.835 291.313 -90.4608C328.358 -60.0851 363.743 -14.1434 395.571 43.9483C459.225 160.13 508.602 324.819 528.589 510.475Z" stroke="url(#paint68_linear_202_4)" stroke-opacity="0.3"/>
<path d="M529.071 515.351C545.814 701.328 529.633 872.496 489.953 998.891C470.113 1062.09 444.406 1114.07 414.024 1151.11C383.644 1188.15 348.617 1210.22 310.124 1213.68C271.631 1217.15 233.225 1201.69 196.718 1170.67C160.209 1139.66 125.631 1093.1 94.8219 1034.46C33.2046 917.19 -13.2902 751.665 -30.034 565.688C-46.7778 379.711 -30.5959 208.542 9.08349 82.1476C28.9236 18.9492 54.6305 -33.0305 85.0124 -70.0704C115.393 -107.108 150.42 -129.178 188.913 -132.643C227.406 -136.109 265.811 -120.651 302.318 -89.6348C338.828 -58.6172 373.406 -12.0649 404.215 46.5734C465.832 163.848 512.327 329.374 529.071 515.351Z" stroke="url(#paint69_linear_202_4)" stroke-opacity="0.3"/>
<path d="M529.468 520.232C542.963 706.473 523.796 877.334 481.917 1003.02C460.977 1065.86 434.367 1117.38 403.343 1153.89C372.321 1190.39 336.914 1211.84 298.367 1214.64C259.819 1217.43 221.689 1201.3 185.729 1169.65C149.767 1138 116.006 1090.86 86.2253 1031.69C26.6641 913.357 -16.9348 747.045 -30.4303 560.804C-43.9257 374.563 -24.7591 203.703 17.1202 78.0202C38.0602 15.1778 64.6705 -36.3454 95.6941 -72.8494C126.716 -109.352 162.123 -130.806 200.671 -133.599C239.218 -136.393 277.348 -120.267 313.309 -88.6183C349.271 -56.9682 383.031 -9.81961 412.812 49.3475C472.373 167.68 515.972 333.992 529.468 520.232Z" stroke="url(#paint70_linear_202_4)" stroke-opacity="0.3"/>
<path d="M529.779 525.121C540.022 711.569 517.877 882.069 473.81 1007C451.777 1069.47 424.271 1120.52 392.615 1156.48C360.961 1192.43 325.185 1213.27 286.595 1215.39C248.004 1217.51 210.161 1200.72 174.759 1168.45C139.354 1136.17 106.422 1088.44 77.6782 1028.76C20.1913 909.411 -20.4985 742.363 -30.7416 555.915C-40.9846 369.467 -18.8389 198.967 25.2274 74.0348C47.261 11.5673 74.7664 -39.4836 106.422 -75.4407C138.077 -111.396 173.853 -132.229 212.443 -134.349C251.034 -136.469 288.876 -119.68 324.279 -87.4092C359.683 -55.1363 392.616 -7.40572 421.36 52.2721C478.846 171.626 519.536 338.673 529.779 525.121Z" stroke="url(#paint71_linear_202_4)" stroke-opacity="0.3"/>
<path d="M530.005 530.016C536.992 716.614 511.875 886.701 465.635 1010.85C442.514 1072.92 414.122 1123.48 381.843 1158.88C349.566 1194.28 313.432 1214.48 274.811 1215.93C236.189 1217.38 198.645 1199.93 163.811 1167.05C128.975 1134.16 96.881 1085.86 69.183 1025.69C13.7878 905.353 -23.9803 737.621 -30.9679 551.022C-37.9554 364.424 -12.8374 194.337 33.4026 70.1921C56.523 8.1187 84.9152 -42.4444 117.194 -77.8435C149.471 -113.241 185.605 -133.447 224.227 -134.893C262.848 -136.339 300.392 -118.892 335.226 -86.0081C370.062 -53.1223 402.156 -4.82415 429.854 55.3462C485.249 175.685 523.017 343.417 530.005 530.016Z" stroke="url(#paint72_linear_202_4)" stroke-opacity="0.3"/>
<path d="M530.146 534.912C533.876 721.604 505.793 891.227 457.393 1014.55C433.193 1076.21 403.923 1126.27 371.031 1161.1C338.141 1195.92 301.66 1215.5 263.019 1216.27C224.378 1217.04 187.145 1198.94 152.89 1165.45C118.633 1131.97 87.3869 1083.11 60.7431 1022.47C7.45665 901.183 -27.3785 732.817 -31.1083 546.125C-34.8382 359.433 -6.75565 189.81 41.6439 66.4914C65.8442 4.83096 95.1145 -45.2289 128.006 -80.0593C160.896 -114.888 197.377 -134.46 236.018 -135.232C274.659 -136.004 311.893 -117.905 346.148 -84.4175C380.404 -50.9287 411.651 -2.0778 438.294 58.5668C491.581 179.854 526.416 348.22 530.146 534.912Z" stroke="url(#paint73_linear_202_4)" stroke-opacity="0.3"/>
<path d="M530.201 539.81C530.672 726.539 499.633 895.646 449.089 1018.1C423.816 1079.33 393.677 1128.87 360.182 1163.12C326.69 1197.37 289.872 1216.3 251.224 1216.4C212.575 1216.5 175.663 1197.75 141.998 1163.67C108.331 1129.59 77.942 1080.2 52.3607 1019.1C1.19909 896.903 -30.6923 727.955 -31.1634 541.226C-31.6345 354.498 -0.595871 185.391 49.9486 62.9357C75.2212 1.707 105.361 -47.8345 138.855 -82.0855C172.348 -116.335 209.165 -135.267 247.814 -135.365C286.462 -135.462 323.374 -116.716 357.04 -82.6359C390.706 -48.5543 421.095 0.834446 446.677 61.9348C497.838 184.133 529.73 353.082 530.201 539.81Z" stroke="url(#paint74_linear_202_4)" stroke-opacity="0.3"/>
<path d="M530.17 544.709C527.382 731.418 493.397 899.957 440.723 1021.51C414.386 1082.29 383.386 1131.3 349.299 1164.96C315.214 1198.62 278.072 1216.91 239.428 1216.33C200.783 1215.75 164.204 1196.36 131.139 1161.7C98.0717 1127.04 68.5492 1077.13 44.0382 1015.59C-4.983 892.516 -33.921 723.037 -31.1331 536.328C-28.3453 349.62 5.6399 181.08 58.3138 59.5258C84.6512 -1.25249 115.651 -50.2604 149.738 -83.9216C183.823 -117.581 220.965 -135.868 259.61 -135.291C298.254 -134.714 334.833 -115.326 367.898 -80.6641C400.965 -46.0002 430.488 3.91143 454.999 65.449C504.02 188.522 532.958 358.001 530.17 544.709Z" stroke="url(#paint75_linear_202_4)" stroke-opacity="0.3"/>
<path d="M530.055 549.607C524.009 736.238 487.087 904.159 432.3 1024.78C404.906 1085.08 373.056 1133.54 338.386 1166.61C303.719 1199.66 266.263 1217.3 227.635 1216.05C189.006 1214.8 152.771 1194.77 120.316 1159.54C87.8586 1124.31 59.2117 1073.89 35.7784 1011.93C-11.0874 888.02 -37.0632 718.062 -31.0172 531.431C-24.9713 344.799 11.9502 176.878 66.7374 56.2618C94.1315 -4.04754 125.982 -52.507 160.651 -85.5682C195.319 -118.628 232.774 -136.264 271.403 -135.012C310.031 -133.761 346.266 -113.738 378.722 -78.5037C411.179 -43.2679 439.826 7.15128 463.259 69.1072C510.125 193.017 536.1 362.975 530.055 549.607Z" stroke="url(#paint76_linear_202_4)" stroke-opacity="0.3"/>
<path d="M529.853 554.502C520.55 741 480.704 908.251 423.82 1027.89C395.378 1087.71 362.687 1135.61 327.445 1168.06C292.206 1200.51 254.449 1217.49 215.848 1215.57C177.247 1213.64 141.367 1192.99 109.531 1157.19C77.6943 1121.4 49.9317 1070.48 27.5832 1008.13C-17.1129 883.42 -40.1185 713.034 -30.8163 526.537C-21.5141 340.04 18.3323 172.789 75.2162 53.1469C103.659 -6.67523 136.35 -54.5714 171.591 -87.0225C206.83 -119.472 244.588 -136.452 283.188 -134.526C321.789 -132.601 357.67 -111.948 389.505 -76.1533C421.342 -40.3564 449.105 10.5551 471.453 72.9105C516.149 197.619 539.155 368.005 529.853 554.502Z" stroke="url(#paint77_linear_202_4)" stroke-opacity="0.3"/>
<path d="M529.566 559.392C517.011 745.699 474.251 912.228 415.288 1030.86C385.806 1090.18 352.284 1137.49 316.482 1169.33C280.682 1201.16 242.634 1217.47 204.072 1214.87C165.511 1212.28 129.997 1191 98.7907 1154.65C67.5832 1118.31 40.7134 1066.92 19.4566 1004.18C-23.0563 878.714 -43.0848 707.953 -30.5292 521.646C-17.9736 335.339 24.7857 168.809 83.749 50.1783C113.231 -9.13832 146.753 -56.4567 182.555 -88.2878C218.356 -120.117 256.404 -136.435 294.965 -133.837C333.526 -131.238 369.041 -109.962 400.246 -73.6171C431.454 -37.2701 458.324 14.1182 479.581 76.8542C522.093 202.324 542.122 373.085 529.566 559.392Z" stroke="url(#paint78_linear_202_4)" stroke-opacity="0.3"/>
<path d="M529.194 564.277C513.389 750.336 467.73 916.094 406.705 1033.68C376.192 1092.47 341.849 1139.2 305.497 1170.4C269.147 1201.6 230.82 1217.25 192.31 1213.98C153.8 1210.71 118.662 1188.82 88.0952 1151.93C57.5269 1115.05 31.558 1063.2 11.3993 1000.1C-28.9174 873.906 -45.9626 702.821 -30.1574 516.762C-14.3522 330.703 31.3069 164.944 92.3316 47.3604C122.845 -11.4326 157.187 -58.1587 193.539 -89.3602C229.89 -120.56 268.217 -136.212 306.727 -132.94C345.237 -129.669 380.375 -107.777 410.941 -70.8925C441.51 -34.0063 467.479 17.8431 487.637 80.9405C527.954 207.133 544.999 378.218 529.194 564.277Z" stroke="url(#paint79_linear_202_4)" stroke-opacity="0.3"/>
<path d="M528.737 569.154C509.687 754.909 461.142 919.845 398.074 1036.35C366.54 1094.6 331.387 1140.72 294.496 1171.28C257.607 1201.84 219.012 1216.82 180.565 1212.88C142.118 1208.93 107.368 1186.43 77.4494 1149.02C47.5295 1111.61 22.4694 1059.31 3.41502 995.872C-34.6931 868.995 -48.7499 697.639 -29.7 511.884C-10.65 326.129 37.895 161.193 100.963 44.6917C132.497 -13.5598 167.65 -59.6795 204.541 -90.2417C241.43 -120.802 280.025 -135.783 318.472 -131.84C356.919 -127.897 391.669 -105.395 421.588 -67.9826C451.508 -30.5686 476.568 21.7261 495.622 85.1657C533.73 212.043 547.787 383.399 528.737 569.154Z" stroke="url(#paint80_linear_202_4)" stroke-opacity="0.3"/>
<path d="M528.195 574.023C505.906 759.417 454.489 923.481 389.398 1038.86C356.852 1096.56 320.9 1142.06 283.481 1171.97C246.064 1201.88 207.214 1216.19 168.841 1211.57C130.469 1206.96 96.1164 1183.85 66.8555 1145.93C37.5931 1107.99 13.4496 1055.27 -4.49478 991.508C-40.3828 863.985 -51.4469 692.41 -29.158 507.016C-6.86902 321.621 44.5472 157.558 109.638 42.175C142.185 -15.5173 178.137 -61.0164 215.556 -90.9301C252.973 -120.842 291.823 -135.147 330.195 -130.534C368.568 -125.92 402.92 -102.815 432.181 -64.8865C461.443 -26.956 485.587 25.7681 503.531 89.5306C539.419 217.053 550.483 388.629 528.195 574.023Z" stroke="url(#paint81_linear_202_4)" stroke-opacity="0.3"/>
<path d="M527.567 578.882C502.046 763.859 447.775 927 380.68 1041.23C347.132 1098.34 310.391 1143.21 272.455 1172.47C234.522 1201.72 195.428 1215.34 157.142 1210.06C118.856 1204.78 84.9121 1181.08 56.3176 1142.65C27.7217 1104.21 4.50192 1051.07 -12.3269 987.006C-45.9838 858.877 -54.0519 687.134 -28.5307 502.157C-3.00961 317.18 51.2621 154.039 118.357 39.8097C151.905 -17.3058 188.646 -62.1705 226.581 -91.4267C264.515 -120.681 303.609 -134.306 341.895 -129.023C380.181 -123.741 414.125 -100.04 442.719 -61.6064C471.315 -23.1709 494.535 29.9665 511.364 94.0325C545.021 222.162 553.089 393.905 527.567 578.882Z" stroke="url(#paint82_linear_202_4)" stroke-opacity="0.3"/>
<path d="M526.856 583.728C498.11 768.231 440.999 930.401 371.921 1043.44C337.381 1099.96 299.863 1144.18 261.423 1172.77C222.985 1201.36 183.659 1214.3 145.471 1208.35C107.283 1202.4 73.7579 1178.11 45.8385 1139.18C17.9177 1100.25 -4.37117 1046.72 -20.0793 982.368C-51.495 853.671 -56.5644 681.814 -27.8189 497.31C0.92662 312.807 58.0372 150.637 127.116 37.5966C161.655 -18.9247 199.174 -63.1414 237.614 -91.731C276.052 -120.319 315.378 -133.259 353.566 -127.309C391.754 -121.36 425.279 -97.0698 453.198 -58.1431C481.119 -19.2145 503.408 34.3201 519.116 98.6701C550.532 227.368 555.601 399.225 526.856 583.728Z" stroke="url(#paint83_linear_202_4)" stroke-opacity="0.3"/>
<path d="M526.059 588.561C494.098 772.535 434.166 933.683 363.125 1045.5C327.604 1101.41 289.32 1144.97 250.387 1172.88C211.455 1200.79 171.91 1213.05 133.832 1206.43C95.7534 1199.81 62.6573 1174.94 35.4215 1135.54C8.18434 1096.13 -13.1668 1042.21 -27.7495 977.596C-56.9143 848.369 -58.9836 676.45 -27.0225 492.476C4.93872 308.503 64.8709 147.355 135.912 35.5368C171.433 -20.3732 209.717 -63.9283 248.65 -91.8427C287.581 -119.756 327.127 -132.007 365.205 -125.392C403.283 -118.777 436.38 -93.9055 463.615 -54.4975C490.852 -15.0875 512.204 38.828 526.786 103.442C555.951 232.668 558.02 404.588 526.059 588.561Z" stroke="url(#paint84_linear_202_4)" stroke-opacity="0.3"/>
<path d="M525.179 593.381C490.012 776.769 427.276 936.846 354.295 1047.41C317.803 1102.69 278.765 1145.57 239.35 1172.8C199.938 1200.03 160.185 1211.59 122.227 1204.31C84.2704 1197.03 51.6133 1171.59 25.0695 1131.71C-1.47574 1091.83 -21.8827 1037.55 -35.3354 972.69C-62.2405 842.975 -61.3091 671.046 -26.1421 487.658C9.02503 304.27 71.7605 144.192 144.742 33.6314C181.233 -21.6501 220.272 -64.5304 259.686 -91.7611C299.099 -118.99 338.852 -130.55 376.809 -123.271C414.766 -115.992 447.423 -90.5472 473.967 -50.6699C500.512 -10.7906 520.919 43.4893 534.372 108.348C561.277 238.064 560.346 409.993 525.179 593.381Z" stroke="url(#paint85_linear_202_4)" stroke-opacity="0.3"/>
<path d="M524.214 598.183C485.852 780.93 420.332 939.888 345.433 1049.16C307.982 1103.79 268.201 1145.99 228.317 1172.53C188.435 1199.06 148.487 1209.93 110.662 1201.99C72.8381 1194.05 40.6301 1168.04 14.7862 1127.7C-11.059 1087.36 -30.5154 1032.74 -42.8342 967.653C-67.4713 837.487 -63.5396 665.601 -25.1773 482.854C13.185 300.108 78.7047 141.15 153.604 31.8796C191.055 -22.7566 230.836 -64.9491 270.72 -91.4877C310.601 -118.025 350.55 -128.889 388.375 -120.949C426.199 -113.009 458.407 -86.9975 484.251 -46.663C510.096 -6.32649 529.552 48.3012 541.871 113.385C566.508 243.55 562.577 415.437 524.214 598.183Z" stroke="url(#paint86_linear_202_4)" stroke-opacity="0.3"/>
<path d="M523.166 602.968C481.621 785.017 413.337 942.807 336.541 1050.75C298.143 1104.73 257.631 1146.22 217.291 1172.06C176.952 1197.9 136.82 1208.06 99.1396 1199.46C61.4597 1190.86 29.7106 1164.29 4.57458 1123.51C-20.5627 1082.73 -39.0628 1027.77 -50.2439 962.485C-72.6055 831.909 -65.6745 660.117 -24.1287 478.068C17.4171 296.02 85.701 138.229 162.496 30.2825C200.895 -23.6918 241.406 -65.1836 281.747 -91.0221C322.086 -116.859 362.218 -127.025 399.898 -118.425C437.578 -109.826 469.327 -83.257 494.463 -42.4776C519.6 -1.69619 538.101 53.2628 549.282 118.552C571.643 249.127 564.712 420.919 523.166 602.968Z" stroke="url(#paint87_linear_202_4)" stroke-opacity="0.3"/>
<path d="M522.035 607.735C477.318 789.031 406.291 945.606 327.623 1052.2C288.288 1105.49 247.059 1146.27 206.273 1171.4C165.49 1196.53 125.186 1205.99 87.6621 1196.74C50.138 1187.48 18.8574 1160.36 -5.56307 1119.15C-29.9848 1077.94 -47.5229 1022.66 -57.5628 957.189C-77.6422 826.243 -67.7141 654.599 -22.9974 473.303C21.7193 292.007 92.7466 135.432 171.414 28.8418C210.749 -24.4541 251.978 -65.2325 292.764 -90.3631C333.547 -115.492 373.851 -124.956 411.375 -115.7C448.899 -106.445 480.18 -79.3255 504.6 -38.1136C529.022 3.10035 546.56 58.3738 556.6 123.848C576.679 254.794 566.751 426.439 522.035 607.735Z" stroke="url(#paint88_linear_202_4)" stroke-opacity="0.3"/>
<path d="M520.82 612.481C472.946 792.969 399.197 948.28 318.681 1053.48C278.422 1106.08 236.487 1146.14 195.269 1170.55C154.054 1194.96 113.591 1203.72 76.234 1193.81C38.8771 1183.9 8.07458 1156.24 -15.6229 1114.61C-39.3216 1072.98 -55.8925 1017.41 -64.7882 951.767C-82.5792 820.491 -69.6569 649.045 -21.783 468.557C26.0909 288.069 99.84 132.758 180.356 27.5571C220.615 -25.0442 262.549 -65.0969 303.767 -89.5119C344.983 -113.926 385.446 -122.684 422.803 -112.775C460.16 -102.866 490.962 -75.205 514.66 -33.5733C538.358 8.06065 554.929 63.6318 563.825 129.271C581.616 260.548 568.694 431.993 520.82 612.481Z" stroke="url(#paint89_linear_202_4)" stroke-opacity="0.3"/>
<path d="M519.523 617.204C468.506 796.829 392.058 950.83 309.718 1054.61C268.548 1106.5 225.92 1145.81 184.282 1169.51C142.647 1193.2 102.037 1201.25 64.8591 1190.69C27.6809 1180.13 -2.63421 1151.93 -25.6015 1109.9C-48.57 1067.85 -64.1685 1012 -71.9172 946.218C-87.4145 814.651 -71.502 643.457 -20.4854 463.833C30.5311 284.208 106.98 130.207 189.319 26.4274C230.49 -25.4633 273.117 -64.778 314.755 -88.4698C356.391 -112.161 397 -120.211 434.178 -109.652C471.357 -99.0928 501.672 -70.8982 524.639 -28.8592C547.607 13.182 563.206 69.0338 570.955 134.818C586.452 266.385 570.539 437.579 519.523 617.204Z" stroke="url(#paint90_linear_202_4)" stroke-opacity="0.3"/>
<path d="M518.143 621.905C463.999 800.613 384.875 953.256 300.737 1055.58C258.667 1106.75 215.36 1145.31 173.315 1168.27C131.272 1191.23 90.5282 1198.57 53.5399 1187.37C16.5516 1176.16 -13.2668 1147.44 -35.4969 1105.01C-57.7282 1062.57 -72.3495 1006.46 -78.949 940.547C-92.1477 808.73 -73.25 637.84 -19.1063 459.133C35.0374 280.425 114.162 127.782 198.3 25.4557C240.37 -25.7085 283.677 -64.2733 325.722 -87.2349C367.765 -110.195 408.509 -117.536 445.497 -106.33C482.485 -95.1232 512.304 -66.4038 534.534 -23.9703C556.765 18.4653 571.386 74.5809 577.986 140.491C591.185 272.308 572.287 443.198 518.143 621.905Z" stroke="url(#paint91_linear_202_4)" stroke-opacity="0.3"/>
<path d="M516.682 626.58C459.428 804.315 377.651 955.554 291.74 1056.4C248.784 1106.82 204.81 1144.62 162.371 1166.85C119.934 1189.07 79.0681 1195.7 42.281 1183.85C5.4939 1172 -23.8187 1142.76 -45.3049 1099.95C-66.7922 1057.13 -80.4319 1000.77 -85.8801 934.753C-96.7763 802.725 -74.899 632.191 -17.6447 454.456C39.6096 276.721 121.386 125.482 207.297 24.6396C250.254 -25.7826 294.227 -63.5857 336.667 -85.81C379.104 -108.033 419.969 -114.662 456.756 -102.812C493.543 -90.9612 522.856 -61.7258 544.342 -18.9108C565.83 23.9063 579.469 80.2685 584.917 146.284C595.814 278.311 573.936 448.845 516.682 626.58Z" stroke="url(#paint92_linear_202_4)" stroke-opacity="0.3"/>
<path d="M515.139 631.231C454.792 807.939 370.388 957.728 282.73 1057.06C238.9 1106.72 194.274 1143.75 151.453 1165.23C108.634 1186.71 67.6594 1192.62 31.0847 1180.13C-5.48995 1167.64 -34.2879 1137.9 -55.0236 1094.72C-75.7603 1051.53 -88.4144 994.94 -92.7096 928.84C-101.3 796.643 -76.4497 626.516 -16.1022 449.807C44.2453 273.098 128.649 123.31 216.307 23.9818C260.137 -25.683 304.763 -62.7129 347.584 -84.1932C390.403 -105.672 431.378 -111.587 467.952 -99.0963C504.527 -86.6057 533.325 -56.8632 554.061 -13.6797C574.797 29.5059 587.451 86.0976 591.747 152.198C600.337 284.395 575.487 454.522 515.139 631.231Z" stroke="url(#paint93_linear_202_4)" stroke-opacity="0.3"/>
<path d="M513.515 635.853C450.093 811.482 363.088 959.774 273.71 1057.56C229.02 1106.45 183.754 1142.7 140.565 1163.42C97.3781 1184.15 56.306 1189.35 19.9549 1176.22C-16.3962 1163.1 -44.6707 1132.86 -64.6496 1089.32C-84.6295 1045.78 -96.2939 988.974 -99.4349 922.809C-105.717 790.481 -77.9011 620.815 -14.4788 445.186C48.9435 269.557 135.948 121.264 225.327 23.4815C270.017 -25.4108 315.283 -61.6563 358.472 -82.3859C401.658 -103.114 442.731 -108.313 479.082 -95.186C515.433 -82.0591 543.707 -51.8184 563.686 -8.2797C583.666 35.2612 595.33 92.0652 598.471 158.23C604.753 290.557 576.938 460.224 513.515 635.853Z" stroke="url(#paint94_linear_202_4)" stroke-opacity="0.3"/>
<path d="M511.811 640.446C445.334 814.941 355.754 961.693 264.683 1057.9C219.146 1106.01 173.254 1141.46 129.71 1161.43C86.1682 1181.4 45.0117 1185.88 8.89519 1172.12C-27.2213 1158.36 -54.9637 1127.63 -74.1797 1083.75C-93.3966 1039.87 -104.068 982.871 -106.054 916.661C-110.025 784.244 -79.2527 615.088 -12.7749 440.593C53.7029 266.098 143.282 119.347 234.354 23.1383C279.89 -24.9667 325.782 -60.4165 369.326 -80.3893C412.868 -100.361 454.025 -104.842 490.141 -91.0825C526.258 -77.3231 554 -46.5937 573.216 -2.71285C592.433 41.1702 603.104 98.169 605.09 164.379C609.062 296.796 578.289 465.951 511.811 640.446Z" stroke="url(#paint95_linear_202_4)" stroke-opacity="0.3"/>
<path d="M510.028 645.007C440.515 818.316 348.388 963.482 255.651 1058.09C209.282 1105.39 162.779 1140.03 118.893 1159.24C75.0087 1178.45 33.7802 1182.21 -2.09065 1167.83C-37.9615 1153.44 -65.1633 1122.23 -83.6106 1078.02C-102.059 1033.81 -111.734 976.631 -112.564 910.397C-114.223 777.931 -80.5035 609.338 -10.9905 436.03C58.5225 262.722 150.65 117.556 243.386 22.9514C289.755 -24.3515 336.258 -58.9951 380.145 -78.2048C424.029 -97.4136 465.257 -101.176 501.128 -86.7879C536.999 -72.4003 564.201 -41.1914 582.648 3.01811C601.096 47.2298 610.771 104.406 611.601 170.64C613.261 303.106 579.541 471.699 510.028 645.007Z" stroke="url(#paint96_linear_202_4)" stroke-opacity="0.3"/>
<path d="M508.165 649.538C435.638 821.606 340.991 965.142 246.618 1058.11C199.43 1104.6 152.329 1138.43 108.114 1156.87C63.9019 1175.31 22.6141 1178.35 -13.0002 1163.34C-48.6145 1148.33 -75.2675 1116.65 -92.9404 1072.12C-110.614 1027.6 -119.29 970.26 -118.964 904.021C-118.311 771.546 -81.6542 603.568 -9.12713 431.499C63.3999 259.43 158.046 115.894 252.42 22.9228C299.607 -23.5636 346.708 -57.3904 390.923 -75.8312C435.136 -94.2712 476.424 -97.313 512.038 -82.3016C547.652 -67.2901 574.305 -35.6112 591.978 8.9135C609.652 53.4404 618.327 110.777 618.001 177.016C617.349 309.49 580.692 477.469 508.165 649.538Z" stroke="url(#paint97_linear_202_4)" stroke-opacity="0.3"/>
<path d="M506.223 654.035C430.704 824.812 333.567 966.674 237.585 1057.98C189.593 1103.64 141.909 1136.64 97.3792 1154.31C52.8516 1171.97 11.517 1174.29 -23.8299 1158.66C-59.1768 1143.03 -85.2729 1110.89 -102.166 1066.07C-119.06 1021.24 -126.734 963.758 -125.251 897.535C-122.287 765.091 -82.7041 597.778 -7.18505 427.001C68.334 256.225 165.471 114.362 261.453 23.0522C309.444 -22.6036 357.129 -55.6031 401.658 -73.2696C446.186 -90.9351 487.521 -93.2559 522.868 -77.6252C558.214 -61.9945 584.311 -29.8552 601.204 14.9712C618.098 59.7998 625.771 117.279 624.289 183.502C621.325 315.945 581.742 483.258 506.223 654.035Z" stroke="url(#paint98_linear_202_4)" stroke-opacity="0.3"/>
<path d="M504.202 658.498C425.714 827.931 326.116 968.076 228.556 1057.7C179.775 1102.51 131.522 1134.67 86.6903 1151.56C41.8612 1168.44 0.492361 1170.04 -34.5763 1153.8C-69.645 1137.55 -95.1763 1104.96 -111.284 1059.85C-127.393 1014.73 -134.063 957.127 -131.425 890.94C-126.15 758.568 -83.6528 591.971 -5.16479 422.539C73.3232 253.106 172.921 112.96 270.482 23.3394C319.263 -21.4719 367.516 -53.6342 412.347 -70.5208C457.176 -87.4065 498.545 -89.0055 533.614 -72.7603C568.683 -56.5151 594.214 -23.9253 610.322 21.189C626.431 66.3057 633.1 123.91 630.463 190.097C625.188 322.468 582.69 489.065 504.202 658.498Z" stroke="url(#paint99_linear_202_4)" stroke-opacity="0.3"/>
<defs>
<linearGradient id="paint0_linear_202_4" x1="261.412" y1="498.645" x2="319.743" y2="319.71" gradientUnits="userSpaceOnUse">
<stop stop-color="#9C83FF"/>
<stop offset="1" stop-color="#FF9051"/>
</linearGradient>
<linearGradient id="paint1_linear_202_4" x1="262.141" y1="498.859" x2="323.586" y2="320.969" gradientUnits="userSpaceOnUse">
<stop stop-color="#9C83FF"/>
<stop offset="1" stop-color="#FF9051"/>
</linearGradient>
<linearGradient id="paint2_linear_202_4" x1="262.866" y1="499.085" x2="327.406" y2="322.295" gradientUnits="userSpaceOnUse">
<stop stop-color="#9C83FF"/>
<stop offset="1" stop-color="#FF9051"/>
</linearGradient>
<linearGradient id="paint3_linear_202_4" x1="263.587" y1="499.325" x2="331.203" y2="323.688" gradientUnits="userSpaceOnUse">
<stop stop-color="#9C83FF"/>
<stop offset="1" stop-color="#FF9051"/>
</linearGradient>
<linearGradient id="paint4_linear_202_4" x1="264.304" y1="499.577" x2="334.975" y2="325.147" gradientUnits="userSpaceOnUse">
<stop stop-color="#9C83FF"/>
<stop offset="1" stop-color="#FF9051"/>
</linearGradient>
<linearGradient id="paint5_linear_202_4" x1="265.016" y1="499.841" x2="338.721" y2="326.671" gradientUnits="userSpaceOnUse">
<stop stop-color="#9C83FF"/>
<stop offset="1" stop-color="#FF9051"/>
</linearGradient>
<linearGradient id="paint6_linear_202_4" x1="265.724" y1="500.117" x2="342.439" y2="328.26" gradientUnits="userSpaceOnUse">
<stop stop-color="#9C83FF"/>
<stop offset="1" stop-color="#FF9051"/>
</linearGradient>
<linearGradient id="paint7_linear_202_4" x1="266.426" y1="500.406" x2="346.129" y2="329.913" gradientUnits="userSpaceOnUse">
<stop stop-color="#9C83FF"/>
<stop offset="1" stop-color="#FF9051"/>
</linearGradient>
<linearGradient id="paint8_linear_202_4" x1="267.124" y1="500.707" x2="349.791" y2="331.632" gradientUnits="userSpaceOnUse">
<stop stop-color="#9C83FF"/>
<stop offset="1" stop-color="#FF9051"/>
</linearGradient>
<linearGradient id="paint9_linear_202_4" x1="267.816" y1="501.021" x2="353.421" y2="333.414" gradientUnits="userSpaceOnUse">
<stop stop-color="#9C83FF"/>
<stop offset="1" stop-color="#FF9051"/>
</linearGradient>
<linearGradient id="paint10_linear_202_4" x1="268.502" y1="501.346" x2="357.019" y2="335.259" gradientUnits="userSpaceOnUse">
<stop stop-color="#9C83FF"/>
<stop offset="1" stop-color="#FF9051"/>
</linearGradient>
<linearGradient id="paint11_linear_202_4" x1="269.183" y1="501.683" x2="360.585" y2="337.166" gradientUnits="userSpaceOnUse">
<stop stop-color="#9C83FF"/>
<stop offset="1" stop-color="#FF9051"/>
</linearGradient>
<linearGradient id="paint12_linear_202_4" x1="269.858" y1="502.032" x2="364.117" y2="339.135" gradientUnits="userSpaceOnUse">
<stop stop-color="#9C83FF"/>
<stop offset="1" stop-color="#FF9051"/>
</linearGradient>
<linearGradient id="paint13_linear_202_4" x1="270.527" y1="502.392" x2="367.615" y2="341.165" gradientUnits="userSpaceOnUse">
<stop stop-color="#9C83FF"/>
<stop offset="1" stop-color="#FF9051"/>
</linearGradient>
<linearGradient id="paint14_linear_202_4" x1="271.189" y1="502.765" x2="371.076" y2="343.257" gradientUnits="userSpaceOnUse">
<stop stop-color="#9C83FF"/>
<stop offset="1" stop-color="#FF9051"/>
</linearGradient>
<linearGradient id="paint15_linear_202_4" x1="271.845" y1="503.15" x2="374.5" y2="345.409" gradientUnits="userSpaceOnUse">
<stop stop-color="#9C83FF"/>
<stop offset="1" stop-color="#FF9051"/>
</linearGradient>
<linearGradient id="paint16_linear_202_4" x1="272.493" y1="503.545" x2="377.886" y2="347.62" gradientUnits="userSpaceOnUse">
<stop stop-color="#9C83FF"/>
<stop offset="1" stop-color="#FF9051"/>
</linearGradient>
<linearGradient id="paint17_linear_202_4" x1="273.135" y1="503.951" x2="381.233" y2="349.89" gradientUnits="userSpaceOnUse">
<stop stop-color="#9C83FF"/>
<stop offset="1" stop-color="#FF9051"/>
</linearGradient>
<linearGradient id="paint18_linear_202_4" x1="273.77" y1="504.369" x2="384.54" y2="352.217" gradientUnits="userSpaceOnUse">
<stop stop-color="#9C83FF"/>
<stop offset="1" stop-color="#FF9051"/>
</linearGradient>
<linearGradient id="paint19_linear_202_4" x1="274.397" y1="504.798" x2="387.806" y2="354.602" gradientUnits="userSpaceOnUse">
<stop stop-color="#9C83FF"/>
<stop offset="1" stop-color="#FF9051"/>
</linearGradient>
<linearGradient id="paint20_linear_202_4" x1="275.016" y1="505.238" x2="391.029" y2="357.044" gradientUnits="userSpaceOnUse">
<stop stop-color="#9C83FF"/>
<stop offset="1" stop-color="#FF9051"/>
</linearGradient>
<linearGradient id="paint21_linear_202_4" x1="275.629" y1="505.687" x2="394.21" y2="359.541" gradientUnits="userSpaceOnUse">
<stop stop-color="#9C83FF"/>
<stop offset="1" stop-color="#FF9051"/>
</linearGradient>
<linearGradient id="paint22_linear_202_4" x1="276.232" y1="506.149" x2="397.346" y2="362.095" gradientUnits="userSpaceOnUse">
<stop stop-color="#9C83FF"/>
<stop offset="1" stop-color="#FF9051"/>
</linearGradient>
<linearGradient id="paint23_linear_202_4" x1="276.828" y1="506.62" x2="400.438" y2="364.702" gradientUnits="userSpaceOnUse">
<stop stop-color="#9C83FF"/>
<stop offset="1" stop-color="#FF9051"/>
</linearGradient>
<linearGradient id="paint24_linear_202_4" x1="277.416" y1="507.102" x2="403.483" y2="367.362" gradientUnits="userSpaceOnUse">
<stop stop-color="#9C83FF"/>
<stop offset="1" stop-color="#FF9051"/>
</linearGradient>
<linearGradient id="paint25_linear_202_4" x1="277.994" y1="507.594" x2="406.482" y2="370.076" gradientUnits="userSpaceOnUse">
<stop stop-color="#9C83FF"/>
<stop offset="1" stop-color="#FF9051"/>
</linearGradient>
<linearGradient id="paint26_linear_202_4" x1="278.564" y1="508.096" x2="409.432" y2="372.841" gradientUnits="userSpaceOnUse">
<stop stop-color="#9C83FF"/>
<stop offset="1" stop-color="#FF9051"/>
</linearGradient>
<linearGradient id="paint27_linear_202_4" x1="279.126" y1="508.607" x2="412.335" y2="375.657" gradientUnits="userSpaceOnUse">
<stop stop-color="#9C83FF"/>
<stop offset="1" stop-color="#FF9051"/>
</linearGradient>
<linearGradient id="paint28_linear_202_4" x1="279.679" y1="509.129" x2="415.187" y2="378.524" gradientUnits="userSpaceOnUse">
<stop stop-color="#9C83FF"/>
<stop offset="1" stop-color="#FF9051"/>
</linearGradient>
<linearGradient id="paint29_linear_202_4" x1="280.222" y1="509.661" x2="417.989" y2="381.441" gradientUnits="userSpaceOnUse">
<stop stop-color="#9C83FF"/>
<stop offset="1" stop-color="#FF9051"/>
</linearGradient>
<linearGradient id="paint30_linear_202_4" x1="280.756" y1="510.201" x2="420.739" y2="384.404" gradientUnits="userSpaceOnUse">
<stop stop-color="#9C83FF"/>
<stop offset="1" stop-color="#FF9051"/>
</linearGradient>
<linearGradient id="paint31_linear_202_4" x1="281.28" y1="510.751" x2="423.438" y2="387.416" gradientUnits="userSpaceOnUse">
<stop stop-color="#9C83FF"/>
<stop offset="1" stop-color="#FF9051"/>
</linearGradient>
<linearGradient id="paint32_linear_202_4" x1="281.795" y1="511.31" x2="426.083" y2="390.475" gradientUnits="userSpaceOnUse">
<stop stop-color="#9C83FF"/>
<stop offset="1" stop-color="#FF9051"/>
</linearGradient>
<linearGradient id="paint33_linear_202_4" x1="282.3" y1="511.877" x2="428.675" y2="393.579" gradientUnits="userSpaceOnUse">
<stop stop-color="#9C83FF"/>
<stop offset="1" stop-color="#FF9051"/>
</linearGradient>
<linearGradient id="paint34_linear_202_4" x1="282.795" y1="512.453" x2="431.212" y2="396.728" gradientUnits="userSpaceOnUse">
<stop stop-color="#9C83FF"/>
<stop offset="1" stop-color="#FF9051"/>
</linearGradient>
<linearGradient id="paint35_linear_202_4" x1="283.279" y1="513.039" x2="433.694" y2="399.921" gradientUnits="userSpaceOnUse">
<stop stop-color="#9C83FF"/>
<stop offset="1" stop-color="#FF9051"/>
</linearGradient>
<linearGradient id="paint36_linear_202_4" x1="283.753" y1="513.633" x2="436.119" y2="403.158" gradientUnits="userSpaceOnUse">
<stop stop-color="#9C83FF"/>
<stop offset="1" stop-color="#FF9051"/>
</linearGradient>
<linearGradient id="paint37_linear_202_4" x1="284.218" y1="514.234" x2="438.489" y2="406.435" gradientUnits="userSpaceOnUse">
<stop stop-color="#9C83FF"/>
<stop offset="1" stop-color="#FF9051"/>
</linearGradient>
<linearGradient id="paint38_linear_202_4" x1="284.671" y1="514.843" x2="440.8" y2="409.753" gradientUnits="userSpaceOnUse">
<stop stop-color="#9C83FF"/>
<stop offset="1" stop-color="#FF9051"/>
</linearGradient>
<linearGradient id="paint39_linear_202_4" x1="285.114" y1="515.461" x2="443.053" y2="413.111" gradientUnits="userSpaceOnUse">
<stop stop-color="#9C83FF"/>
<stop offset="1" stop-color="#FF9051"/>
</linearGradient>
<linearGradient id="paint40_linear_202_4" x1="285.546" y1="516.086" x2="445.247" y2="416.509" gradientUnits="userSpaceOnUse">
<stop stop-color="#9C83FF"/>
<stop offset="1" stop-color="#FF9051"/>
</linearGradient>
<linearGradient id="paint41_linear_202_4" x1="285.967" y1="516.718" x2="447.382" y2="419.943" gradientUnits="userSpaceOnUse">
<stop stop-color="#9C83FF"/>
<stop offset="1" stop-color="#FF9051"/>
</linearGradient>
<linearGradient id="paint42_linear_202_4" x1="286.377" y1="517.358" x2="449.456" y2="423.415" gradientUnits="userSpaceOnUse">
<stop stop-color="#9C83FF"/>
<stop offset="1" stop-color="#FF9051"/>
</linearGradient>
<linearGradient id="paint43_linear_202_4" x1="286.775" y1="518.004" x2="451.469" y2="426.922" gradientUnits="userSpaceOnUse">
<stop stop-color="#9C83FF"/>
<stop offset="1" stop-color="#FF9051"/>
</linearGradient>
<linearGradient id="paint44_linear_202_4" x1="287.163" y1="518.658" x2="453.421" y2="430.463" gradientUnits="userSpaceOnUse">
<stop stop-color="#9C83FF"/>
<stop offset="1" stop-color="#FF9051"/>
</linearGradient>
<linearGradient id="paint45_linear_202_4" x1="287.538" y1="519.319" x2="455.31" y2="434.039" gradientUnits="userSpaceOnUse">
<stop stop-color="#9C83FF"/>
<stop offset="1" stop-color="#FF9051"/>
</linearGradient>
<linearGradient id="paint46_linear_202_4" x1="287.902" y1="519.986" x2="457.137" y2="437.647" gradientUnits="userSpaceOnUse">
<stop stop-color="#9C83FF"/>
<stop offset="1" stop-color="#FF9051"/>
</linearGradient>
<linearGradient id="paint47_linear_202_4" x1="288.255" y1="520.659" x2="458.901" y2="441.286" gradientUnits="userSpaceOnUse">
<stop stop-color="#9C83FF"/>
<stop offset="1" stop-color="#FF9051"/>
</linearGradient>
<linearGradient id="paint48_linear_202_4" x1="288.596" y1="521.337" x2="460.602" y2="444.955" gradientUnits="userSpaceOnUse">
<stop stop-color="#9C83FF"/>
<stop offset="1" stop-color="#FF9051"/>
</linearGradient>
<linearGradient id="paint49_linear_202_4" x1="288.924" y1="522.023" x2="462.237" y2="448.655" gradientUnits="userSpaceOnUse">
<stop stop-color="#9C83FF"/>
<stop offset="1" stop-color="#FF9051"/>
</linearGradient>
<linearGradient id="paint50_linear_202_4" x1="289.241" y1="522.714" x2="463.807" y2="452.381" gradientUnits="userSpaceOnUse">
<stop stop-color="#9C83FF"/>
<stop offset="1" stop-color="#FF9051"/>
</linearGradient>
<linearGradient id="paint51_linear_202_4" x1="289.545" y1="523.409" x2="465.313" y2="456.134" gradientUnits="userSpaceOnUse">
<stop stop-color="#9C83FF"/>
<stop offset="1" stop-color="#FF9051"/>
</linearGradient>
<linearGradient id="paint52_linear_202_4" x1="289.838" y1="524.111" x2="466.753" y2="459.913" gradientUnits="userSpaceOnUse">
<stop stop-color="#9C83FF"/>
<stop offset="1" stop-color="#FF9051"/>
</linearGradient>
<linearGradient id="paint53_linear_202_4" x1="290.118" y1="524.817" x2="468.127" y2="463.716" gradientUnits="userSpaceOnUse">
<stop stop-color="#9C83FF"/>
<stop offset="1" stop-color="#FF9051"/>
</linearGradient>
<linearGradient id="paint54_linear_202_4" x1="290.386" y1="525.528" x2="469.434" y2="467.543" gradientUnits="userSpaceOnUse">
<stop stop-color="#9C83FF"/>
<stop offset="1" stop-color="#FF9051"/>
</linearGradient>
<linearGradient id="paint55_linear_202_4" x1="290.641" y1="526.243" x2="470.674" y2="471.393" gradientUnits="userSpaceOnUse">
<stop stop-color="#9C83FF"/>
<stop offset="1" stop-color="#FF9051"/>
</linearGradient>
<linearGradient id="paint56_linear_202_4" x1="290.885" y1="526.963" x2="471.847" y2="475.263" gradientUnits="userSpaceOnUse">
<stop stop-color="#9C83FF"/>
<stop offset="1" stop-color="#FF9051"/>
</linearGradient>
<linearGradient id="paint57_linear_202_4" x1="291.115" y1="527.687" x2="472.952" y2="479.152" gradientUnits="userSpaceOnUse">
<stop stop-color="#9C83FF"/>
<stop offset="1" stop-color="#FF9051"/>
</linearGradient>
<linearGradient id="paint58_linear_202_4" x1="291.332" y1="528.415" x2="473.989" y2="483.062" gradientUnits="userSpaceOnUse">
<stop stop-color="#9C83FF"/>
<stop offset="1" stop-color="#FF9051"/>
</linearGradient>
<linearGradient id="paint59_linear_202_4" x1="291.537" y1="529.146" x2="474.957" y2="486.988" gradientUnits="userSpaceOnUse">
<stop stop-color="#9C83FF"/>
<stop offset="1" stop-color="#FF9051"/>
</linearGradient>
<linearGradient id="paint60_linear_202_4" x1="291.729" y1="529.882" x2="475.857" y2="490.931" gradientUnits="userSpaceOnUse">
<stop stop-color="#9C83FF"/>
<stop offset="1" stop-color="#FF9051"/>
</linearGradient>
<linearGradient id="paint61_linear_202_4" x1="291.908" y1="530.62" x2="476.688" y2="494.888" gradientUnits="userSpaceOnUse">
<stop stop-color="#9C83FF"/>
<stop offset="1" stop-color="#FF9051"/>
</linearGradient>
<linearGradient id="paint62_linear_202_4" x1="292.075" y1="531.361" x2="477.45" y2="498.86" gradientUnits="userSpaceOnUse">
<stop stop-color="#9C83FF"/>
<stop offset="1" stop-color="#FF9051"/>
</linearGradient>
<linearGradient id="paint63_linear_202_4" x1="292.228" y1="532.106" x2="478.142" y2="502.844" gradientUnits="userSpaceOnUse">
<stop stop-color="#9C83FF"/>
<stop offset="1" stop-color="#FF9051"/>
</linearGradient>
<linearGradient id="paint64_linear_202_4" x1="292.368" y1="532.852" x2="478.765" y2="506.84" gradientUnits="userSpaceOnUse">
<stop stop-color="#9C83FF"/>
<stop offset="1" stop-color="#FF9051"/>
</linearGradient>
<linearGradient id="paint65_linear_202_4" x1="292.496" y1="533.601" x2="479.318" y2="510.846" gradientUnits="userSpaceOnUse">
<stop stop-color="#9C83FF"/>
<stop offset="1" stop-color="#FF9051"/>
</linearGradient>
<linearGradient id="paint66_linear_202_4" x1="292.61" y1="534.352" x2="479.801" y2="514.861" gradientUnits="userSpaceOnUse">
<stop stop-color="#9C83FF"/>
<stop offset="1" stop-color="#FF9051"/>
</linearGradient>
<linearGradient id="paint67_linear_202_4" x1="292.419" y1="534.847" x2="479.921" y2="518.626" gradientUnits="userSpaceOnUse">
<stop stop-color="#9C83FF"/>
<stop offset="1" stop-color="#FF9051"/>
</linearGradient>
<linearGradient id="paint68_linear_202_4" x1="292.799" y1="535.86" x2="480.556" y2="522.913" gradientUnits="userSpaceOnUse">
<stop stop-color="#9C83FF"/>
<stop offset="1" stop-color="#FF9051"/>
</linearGradient>
<linearGradient id="paint69_linear_202_4" x1="292.873" y1="536.616" x2="480.828" y2="526.949" gradientUnits="userSpaceOnUse">
<stop stop-color="#9C83FF"/>
<stop offset="1" stop-color="#FF9051"/>
</linearGradient>
<linearGradient id="paint70_linear_202_4" x1="292.935" y1="537.373" x2="481.03" y2="530.987" gradientUnits="userSpaceOnUse">
<stop stop-color="#9C83FF"/>
<stop offset="1" stop-color="#FF9051"/>
</linearGradient>
<linearGradient id="paint71_linear_202_4" x1="292.984" y1="538.131" x2="481.161" y2="535.029" gradientUnits="userSpaceOnUse">
<stop stop-color="#9C83FF"/>
<stop offset="1" stop-color="#FF9051"/>
</linearGradient>
<linearGradient id="paint72_linear_202_4" x1="293.018" y1="538.89" x2="481.221" y2="539.073" gradientUnits="userSpaceOnUse">
<stop stop-color="#9C83FF"/>
<stop offset="1" stop-color="#FF9051"/>
</linearGradient>
<linearGradient id="paint73_linear_202_4" x1="293.04" y1="539.649" x2="481.211" y2="543.116" gradientUnits="userSpaceOnUse">
<stop stop-color="#9C83FF"/>
<stop offset="1" stop-color="#FF9051"/>
</linearGradient>
<linearGradient id="paint74_linear_202_4" x1="293.049" y1="540.409" x2="481.131" y2="547.159" gradientUnits="userSpaceOnUse">
<stop stop-color="#9C83FF"/>
<stop offset="1" stop-color="#FF9051"/>
</linearGradient>
<linearGradient id="paint75_linear_202_4" x1="293.044" y1="541.169" x2="480.979" y2="551.201" gradientUnits="userSpaceOnUse">
<stop stop-color="#9C83FF"/>
<stop offset="1" stop-color="#FF9051"/>
</linearGradient>
<linearGradient id="paint76_linear_202_4" x1="293.026" y1="541.928" x2="480.758" y2="555.239" gradientUnits="userSpaceOnUse">
<stop stop-color="#9C83FF"/>
<stop offset="1" stop-color="#FF9051"/>
</linearGradient>
<linearGradient id="paint77_linear_202_4" x1="292.994" y1="542.689" x2="480.465" y2="559.273" gradientUnits="userSpaceOnUse">
<stop stop-color="#9C83FF"/>
<stop offset="1" stop-color="#FF9051"/>
</linearGradient>
<linearGradient id="paint78_linear_202_4" x1="292.95" y1="543.446" x2="480.103" y2="563.3" gradientUnits="userSpaceOnUse">
<stop stop-color="#9C83FF"/>
<stop offset="1" stop-color="#FF9051"/>
</linearGradient>
<linearGradient id="paint79_linear_202_4" x1="292.892" y1="544.204" x2="479.67" y2="567.321" gradientUnits="userSpaceOnUse">
<stop stop-color="#9C83FF"/>
<stop offset="1" stop-color="#FF9051"/>
</linearGradient>
<linearGradient id="paint80_linear_202_4" x1="292.822" y1="544.96" x2="479.167" y2="571.333" gradientUnits="userSpaceOnUse">
<stop stop-color="#9C83FF"/>
<stop offset="1" stop-color="#FF9051"/>
</linearGradient>
<linearGradient id="paint81_linear_202_4" x1="292.737" y1="545.716" x2="478.594" y2="575.337" gradientUnits="userSpaceOnUse">
<stop stop-color="#9C83FF"/>
<stop offset="1" stop-color="#FF9051"/>
</linearGradient>
<linearGradient id="paint82_linear_202_4" x1="292.64" y1="546.469" x2="477.952" y2="579.33" gradientUnits="userSpaceOnUse">
<stop stop-color="#9C83FF"/>
<stop offset="1" stop-color="#FF9051"/>
</linearGradient>
<linearGradient id="paint83_linear_202_4" x1="292.53" y1="547.221" x2="477.24" y2="583.31" gradientUnits="userSpaceOnUse">
<stop stop-color="#9C83FF"/>
<stop offset="1" stop-color="#FF9051"/>
</linearGradient>
<linearGradient id="paint84_linear_202_4" x1="292.406" y1="547.97" x2="476.458" y2="587.278" gradientUnits="userSpaceOnUse">
<stop stop-color="#9C83FF"/>
<stop offset="1" stop-color="#FF9051"/>
</linearGradient>
<linearGradient id="paint85_linear_202_4" x1="292.27" y1="548.718" x2="475.608" y2="591.232" gradientUnits="userSpaceOnUse">
<stop stop-color="#9C83FF"/>
<stop offset="1" stop-color="#FF9051"/>
</linearGradient>
<linearGradient id="paint86_linear_202_4" x1="292.12" y1="549.462" x2="474.688" y2="595.17" gradientUnits="userSpaceOnUse">
<stop stop-color="#9C83FF"/>
<stop offset="1" stop-color="#FF9051"/>
</linearGradient>
<linearGradient id="paint87_linear_202_4" x1="291.958" y1="550.204" x2="473.701" y2="599.09" gradientUnits="userSpaceOnUse">
<stop stop-color="#9C83FF"/>
<stop offset="1" stop-color="#FF9051"/>
</linearGradient>
<linearGradient id="paint88_linear_202_4" x1="291.782" y1="550.943" x2="472.644" y2="602.994" gradientUnits="userSpaceOnUse">
<stop stop-color="#9C83FF"/>
<stop offset="1" stop-color="#FF9051"/>
</linearGradient>
<linearGradient id="paint89_linear_202_4" x1="291.594" y1="551.68" x2="471.519" y2="606.879" gradientUnits="userSpaceOnUse">
<stop stop-color="#9C83FF"/>
<stop offset="1" stop-color="#FF9051"/>
</linearGradient>
<linearGradient id="paint90_linear_202_4" x1="291.393" y1="552.412" x2="470.328" y2="610.743" gradientUnits="userSpaceOnUse">
<stop stop-color="#9C83FF"/>
<stop offset="1" stop-color="#FF9051"/>
</linearGradient>
<linearGradient id="paint91_linear_202_4" x1="291.179" y1="553.141" x2="469.068" y2="614.587" gradientUnits="userSpaceOnUse">
<stop stop-color="#9C83FF"/>
<stop offset="1" stop-color="#FF9051"/>
</linearGradient>
<linearGradient id="paint92_linear_202_4" x1="290.952" y1="553.866" x2="467.742" y2="618.406" gradientUnits="userSpaceOnUse">
<stop stop-color="#9C83FF"/>
<stop offset="1" stop-color="#FF9051"/>
</linearGradient>
<linearGradient id="paint93_linear_202_4" x1="290.713" y1="554.587" x2="466.35" y2="622.203" gradientUnits="userSpaceOnUse">
<stop stop-color="#9C83FF"/>
<stop offset="1" stop-color="#FF9051"/>
</linearGradient>
<linearGradient id="paint94_linear_202_4" x1="290.461" y1="555.305" x2="464.891" y2="625.976" gradientUnits="userSpaceOnUse">
<stop stop-color="#9C83FF"/>
<stop offset="1" stop-color="#FF9051"/>
</linearGradient>
<linearGradient id="paint95_linear_202_4" x1="290.196" y1="556.017" x2="463.367" y2="629.722" gradientUnits="userSpaceOnUse">
<stop stop-color="#9C83FF"/>
<stop offset="1" stop-color="#FF9051"/>
</linearGradient>
<linearGradient id="paint96_linear_202_4" x1="289.92" y1="556.724" x2="461.778" y2="633.439" gradientUnits="userSpaceOnUse">
<stop stop-color="#9C83FF"/>
<stop offset="1" stop-color="#FF9051"/>
</linearGradient>
<linearGradient id="paint97_linear_202_4" x1="289.631" y1="557.426" x2="460.124" y2="637.129" gradientUnits="userSpaceOnUse">
<stop stop-color="#9C83FF"/>
<stop offset="1" stop-color="#FF9051"/>
</linearGradient>
<linearGradient id="paint98_linear_202_4" x1="289.33" y1="558.124" x2="458.406" y2="640.79" gradientUnits="userSpaceOnUse">
<stop stop-color="#9C83FF"/>
<stop offset="1" stop-color="#FF9051"/>
</linearGradient>
<linearGradient id="paint99_linear_202_4" x1="289.017" y1="558.816" x2="456.624" y2="644.42" gradientUnits="userSpaceOnUse">
<stop stop-color="#9C83FF"/>
<stop offset="1" stop-color="#FF9051"/>
</linearGradient>
</defs>
</svg>
